<?xml version="1.0" standalone="no"?>
<!DOCTYPE svg PUBLIC "-//W3C//DTD SVG 20010904//EN"
 "http://www.w3.org/TR/2001/REC-SVG-20010904/DTD/svg10.dtd">
<svg version="1.0" xmlns="http://www.w3.org/2000/svg"
 width="849.000000pt" height="849.000000pt" viewBox="0 0 849.000000 849.000000"
 preserveAspectRatio="xMidYMid meet">
<metadata>
Created by potrace 1.11, written by Peter Selinger 2001-2013
</metadata>
<g transform="translate(0.000000,849.000000) scale(0.100000,-0.100000)"
fill="#000000" stroke="none">
<path d="M5546 7619 c-2 -8 -11 -43 -21 -79 -22 -84 -65 -165 -125 -232 -43
-48 -51 -66 -78 -164 l-30 -109 -2 70 c-1 58 -3 67 -13 51 -152 -239 -250
-351 -378 -435 -59 -38 -72 -53 -108 -122 -23 -43 -50 -102 -61 -131 l-19 -53
0 65 c-1 36 4 82 10 103 6 22 9 41 6 43 -2 2 -43 -28 -91 -66 -202 -162 -382
-262 -543 -299 -48 -12 -52 -15 -73 -63 -30 -70 -52 -184 -45 -230 4 -21 4
-38 1 -38 -3 0 -18 21 -33 48 -25 42 -28 57 -28 135 0 48 -1 87 -3 87 -2 0
-67 -34 -145 -76 -164 -88 -264 -152 -317 -203 -35 -33 -38 -43 -50 -124 -10
-63 -10 -103 -3 -142 8 -44 7 -53 -3 -44 -22 18 -51 109 -59 182 -3 37 -9 67
-12 67 -4 0 -31 -18 -60 -41 -77 -58 -192 -176 -247 -252 -47 -67 -54 -94 -37
-153 8 -29 7 -32 -25 -48 -51 -24 -125 -96 -145 -141 -10 -22 -19 -57 -19 -78
0 -30 -7 -45 -35 -73 -70 -70 -97 -162 -72 -244 13 -44 12 -48 -25 -144 -21
-55 -109 -266 -195 -470 -276 -656 -351 -850 -442 -1146 l-48 -154 -89 -26
c-116 -34 -152 -51 -234 -105 -187 -124 -331 -340 -530 -795 -101 -231 -196
-421 -266 -525 -69 -106 -207 -246 -288 -294 -132 -78 -315 -119 -478 -107
-50 4 -88 3 -88 -2 0 -11 212 -72 350 -101 326 -69 691 -69 964 0 43 11 80 19
82 17 1 -2 -24 -26 -58 -53 -33 -27 -56 -51 -50 -53 19 -6 245 50 361 90 64
22 152 50 196 63 197 58 305 127 582 372 349 307 486 410 678 506 332 166 705
201 1052 97 169 -50 316 -115 733 -323 402 -201 633 -302 804 -352 314 -90
592 -103 866 -41 121 28 163 43 156 55 -3 4 -70 11 -148 14 -412 16 -901 153
-1138 318 -73 51 -131 103 -105 94 11 -4 61 -22 112 -40 101 -38 366 -112 513
-144 594 -130 1169 -139 1565 -23 117 35 178 58 275 107 92 46 91 59 -2 51
-932 -83 -1702 28 -2463 353 -159 69 -826 383 -821 388 4 4 288 -47 396 -71
114 -26 234 -66 565 -186 438 -159 980 -284 1465 -337 232 -25 734 -25 905 0
430 64 655 200 655 398 0 59 -16 119 -31 119 -5 0 -9 -17 -9 -39 0 -83 -45
-162 -119 -212 -181 -119 -575 -129 -1191 -28 -412 68 -715 139 -1320 309
-765 216 -1130 292 -1555 321 -580 39 -1119 -92 -1554 -378 -52 -35 -96 -62
-97 -60 -1 1 -11 38 -23 81 -12 44 -40 119 -62 167 l-41 87 60 78 c169 223
299 451 639 1118 145 286 275 539 289 562 14 23 37 47 53 54 72 29 131 127
131 217 0 30 5 45 15 49 51 20 89 167 67 262 l-10 42 57 0 c31 1 92 7 135 15
66 12 91 22 150 62 86 59 222 187 314 296 84 100 91 111 66 104 -46 -14 -223
-27 -278 -21 l-59 7 109 22 c247 51 423 146 675 367 70 61 204 206 197 213 -2
2 -39 -7 -81 -20 -43 -14 -103 -27 -135 -31 l-57 -5 90 31 c180 63 327 160
425 282 47 59 134 197 127 204 -2 2 -41 -10 -88 -26 -47 -17 -104 -29 -129
-29 -50 0 -42 6 50 33 30 8 89 33 130 54 74 38 75 38 96 102 61 179 75 388 50
734 -16 210 -20 246 -30 215z m-394 -986 c-127 -139 -299 -303 -402 -383 -141
-108 -238 -169 -518 -322 -140 -76 -280 -156 -312 -178 -162 -110 -355 -292
-534 -502 -92 -108 -100 -116 -122 -106 l-23 11 47 60 c129 165 427 457 568
559 78 56 215 129 316 169 162 64 420 223 618 381 98 78 337 295 404 367 17
17 32 31 34 31 2 0 -32 -39 -76 -87z m-2104 -1353 c10 -17 10 -20 -3 -20 -20
0 -83 -57 -102 -94 -9 -17 -22 -53 -29 -81 -11 -50 -12 -50 -23 -22 -30 76 4
184 69 218 45 24 72 24 88 -1z m105 -133 c-61 -47 -84 -92 -92 -179 l-6 -68
-38 27 -39 27 7 56 c9 84 33 147 70 186 l34 36 46 -32 46 -32 -28 -21z m247
-84 c164 -70 163 -70 196 -59 19 6 23 1 33 -38 14 -58 14 -128 -1 -161 -40
-88 -214 -79 -442 23 l-59 26 6 65 c9 95 25 141 62 178 18 18 37 33 42 33 5 0
78 -30 163 -67z m-547 -80 l26 -36 -31 -35 c-34 -39 -58 -89 -59 -124 0 -19
-4 -15 -20 17 -28 57 -21 132 15 179 15 20 31 36 35 36 4 0 20 -17 34 -37z
m131 -190 c-12 -19 -25 -53 -28 -76 -3 -23 -7 -52 -8 -64 l-3 -21 -43 25 -44
26 7 56 c3 31 17 80 31 108 l25 53 44 -36 43 -36 -24 -35z m219 -67 c86 -39
204 -66 292 -68 l77 -2 -5 -33 c-8 -47 -43 -101 -79 -119 -76 -39 -218 -21
-383 48 l-80 34 1 65 c0 39 7 76 17 96 l17 31 42 -13 c24 -7 69 -25 101 -39z
m-429 -55 c10 -11 15 -27 12 -38 -3 -10 -169 -412 -369 -894 -340 -821 -364
-876 -381 -863 -18 12 3 67 345 914 200 495 366 900 370 900 3 0 14 -9 23 -19z
m198 -150 c104 -56 242 -100 338 -108 44 -3 80 -8 80 -10 0 -3 -33 -66 -74
-141 -40 -76 -135 -258 -211 -407 -340 -665 -607 -1121 -671 -1145 -52 -20
-135 -12 -199 19 -33 17 -68 36 -77 44 -17 13 6 71 328 828 190 448 359 847
376 887 16 39 31 72 33 72 2 0 36 -18 77 -39z m-967 -1699 c-6 -5 -39 -29 -75
-54 -168 -118 -279 -280 -288 -424 -5 -87 9 -99 27 -21 20 88 86 212 144 270
51 50 211 146 224 133 3 -3 -8 -21 -25 -40 -75 -85 -153 -222 -187 -325 -19
-59 -26 -200 -10 -201 6 -1 22 47 36 107 38 161 95 257 232 391 l54 53 6 -43
c7 -51 -6 -156 -27 -214 -25 -72 -57 -128 -164 -291 -27 -42 8 -26 56 25 103
111 186 260 207 375 19 99 38 -22 23 -143 -11 -93 -44 -191 -108 -328 -28 -58
-48 -108 -45 -111 4 -3 9 -1 13 5 4 5 26 37 48 69 89 129 149 281 163 412 l7
68 12 -78 c16 -106 15 -251 -3 -322 -20 -79 -83 -207 -141 -286 -26 -34 -89
-109 -141 -166 -52 -57 -90 -103 -84 -103 16 0 112 80 180 149 73 75 152 188
187 268 56 126 76 219 83 388 l6 160 23 -60 c67 -171 77 -293 37 -451 -25
-100 -26 -122 0 -88 53 71 82 228 67 365 -6 52 -9 95 -7 97 2 2 8 -21 15 -50
76 -351 -19 -692 -263 -940 -138 -141 -317 -250 -537 -329 -61 -21 -113 -39
-115 -39 -2 0 38 41 90 91 52 51 95 98 95 105 0 8 -39 -6 -106 -37 -219 -104
-418 -166 -606 -189 -114 -14 -445 -8 -556 10 l-73 13 56 22 c94 39 165 87
245 166 135 134 256 339 445 754 173 382 280 561 408 682 107 102 226 156 357
162 13 0 20 -3 15 -7z"/>
</g>
</svg>
