<?xml version="1.0" encoding="UTF-8" standalone="no"?>
<svg
   xmlns:dc="http://purl.org/dc/elements/1.1/"
   xmlns:cc="http://creativecommons.org/ns#"
   xmlns:rdf="http://www.w3.org/1999/02/22-rdf-syntax-ns#"
   xmlns:svg="http://www.w3.org/2000/svg"
   xmlns="http://www.w3.org/2000/svg"
   id="svg4849"
   version="1.1"
   viewBox="0 0 43.905884 60.014968"
   height="226.82823"
   width="165.94348">
  <defs
     id="defs4843" />
  <metadata
     id="metadata4846">
    <rdf:RDF>
      <cc:Work
         rdf:about="">
        <dc:format>image/svg+xml</dc:format>
        <dc:type
           rdf:resource="http://purl.org/dc/dcmitype/StillImage" />
        <dc:title></dc:title>
      </cc:Work>
    </rdf:RDF>
  </metadata>
  <g
     transform="translate(-87.660158,-135.08057)"
     id="layer1">
    <path
       id="path5191-4"
       d="m 98.902811,173.49819 c -0.131825,-2.35142 -2.097877,-3.30534 -4.499843,-3.92714 v 0 c 0.428243,-1.40217 2.064676,-5.06081 -4.213498,-10.10419 5.133469,-4.90664 3.98879,-9.58074 3.436246,-14.27678 6.131439,1.34616 10.720594,-0.77782 14.235884,-5.31801 3.24181,4.54068 7.60398,3.9276 11.90414,3.59988 -0.44515,5.06187 2.13657,8.02819 7.36337,9.16332 -3.62554,4.83603 -2.66464,8.66304 -0.89997,12.31322 -7.46069,3.03568 -4.91973,7.54001 -4.45894,8.67242 -1.32818,-0.28373 -2.18686,0.37156 -2.86353,1.39086"
       style="display:inline;fill:none;stroke:#000000;stroke-width:0.08099307px;stroke-linecap:butt;stroke-linejoin:miter;stroke-opacity:1" />
    <ellipse
       transform="rotate(42.750251)"
       ry="0.2045384"
       rx="0.85906124"
       cy="46.947487"
       cx="208.72409"
       id="path5193-5"
       style="display:inline;opacity:1;fill:#000000;fill-opacity:1;stroke:none;stroke-width:0.15305778;stroke-miterlimit:4;stroke-dasharray:none;stroke-opacity:1" />
    <path
       id="path5203-9"
       d="m 90.18947,159.46686 c -2.857049,-1.56929 -2.470049,0.25451 -2.470049,0.25451 0,0 0.360102,1.96629 2.470049,-0.25451 z"
       style="display:inline;fill:none;stroke:#000000;stroke-width:0.08099307px;stroke-linecap:butt;stroke-linejoin:miter;stroke-opacity:1" />
    <path
       id="path5203-0-4"
       d="m 94.402968,169.57105 c -3.253378,-0.20229 -2.126136,1.28277 -2.126136,1.28277 0,0 1.163614,1.62539 2.126136,-1.28277 z"
       style="display:inline;fill:none;stroke:#000000;stroke-width:0.08099307px;stroke-linecap:butt;stroke-linejoin:miter;stroke-opacity:1" />
    <path
       id="path5235-3"
       d="m 93.625716,145.19008 c -2.653116,-1.08542 -3.727918,-2.23214 -3.108983,-2.57719 1.26662,-0.70613 2.308929,1.14713 3.108983,2.57719 z"
       style="display:inline;fill:none;stroke:#000000;stroke-width:0.08099307px;stroke-linecap:butt;stroke-linejoin:miter;stroke-opacity:1" />
    <path
       id="path5237-7"
       d="m 107.8616,139.87207 c -1.12631,-2.55067 -1.11197,-4.88397 0.16363,-4.74528 1.62184,0.17633 0.452,3.32165 -0.16363,4.74528 z"
       style="display:inline;fill:none;stroke:#000000;stroke-width:0.08099307px;stroke-linecap:butt;stroke-linejoin:miter;stroke-opacity:1" />
    <path
       id="path5239-2"
       d="m 119.76574,143.47195 c 0.98706,-1.09234 2.53734,-3.37011 3.44221,-2.1191 0.98566,1.36272 -2.02307,1.68024 -3.44221,2.1191 z"
       style="display:inline;fill:none;stroke:#000000;stroke-width:0.08099307px;stroke-linecap:butt;stroke-linejoin:miter;stroke-opacity:1" />
    <path
       id="path5241-9"
       d="m 127.12911,152.63527 c 1.10433,-1.48914 3.71494,-1.73784 3.92714,-1.5954 0.31286,0.21002 -0.68577,1.77233 -3.92714,1.5954 z"
       style="display:inline;fill:none;stroke:#000000;stroke-width:0.08099307px;stroke-linecap:butt;stroke-linejoin:miter;stroke-opacity:1" />
    <path
       id="path5243-5"
       d="m 126.22914,164.94849 c 1.4622,-0.15777 4.37667,0.78897 3.59096,1.76962 -0.76054,0.94923 -2.22248,0.17588 -3.59096,-1.76962 z"
       style="display:inline;fill:none;stroke:#000000;stroke-width:0.08099307px;stroke-linecap:butt;stroke-linejoin:miter;stroke-opacity:1" />
    <path
       id="path5260-0"
       d="m 121.7702,173.62091 c 0.71593,1.18216 1.6436,1.9679 1.95212,1.23116 0.23519,-0.56161 -1.19067,-0.94317 -1.95212,-1.23116 z"
       style="display:inline;fill:none;stroke:#000000;stroke-width:0.08099307px;stroke-linecap:butt;stroke-linejoin:miter;stroke-opacity:1" />
    <ellipse
       transform="rotate(42.750251)"
       ry="0.2045384"
       rx="0.85906124"
       cy="41.691544"
       cx="209.04639"
       id="path5193-1-3"
       style="display:inline;opacity:1;fill:#000000;fill-opacity:1;stroke:none;stroke-width:0.15305778;stroke-miterlimit:4;stroke-dasharray:none;stroke-opacity:1" />
    <ellipse
       transform="rotate(37.455042)"
       ry="0.2045384"
       rx="0.85906124"
       cy="57.608131"
       cx="204.1758"
       id="path5193-7-9"
       style="display:inline;opacity:1;fill:#000000;fill-opacity:1;stroke:none;stroke-width:0.15305778;stroke-miterlimit:4;stroke-dasharray:none;stroke-opacity:1" />
    <ellipse
       transform="rotate(14.369617)"
       ry="0.2045384"
       rx="0.85906124"
       cy="124.56238"
       cx="165.76822"
       id="path5193-7-0-47"
       style="display:inline;opacity:1;fill:#000000;fill-opacity:1;stroke:none;stroke-width:0.15305778;stroke-miterlimit:4;stroke-dasharray:none;stroke-opacity:1" />
    <ellipse
       transform="rotate(14.369617)"
       ry="0.2045384"
       rx="0.85906124"
       cy="121.1282"
       cx="165.98634"
       id="path5193-7-0-2-1"
       style="display:inline;opacity:1;fill:#000000;fill-opacity:1;stroke:none;stroke-width:0.15305778;stroke-miterlimit:4;stroke-dasharray:none;stroke-opacity:1" />
    <ellipse
       transform="rotate(0.85264284)"
       ry="0.2045384"
       rx="0.85906124"
       cy="153.21919"
       cx="132.78159"
       id="path5193-7-0-3-8"
       style="display:inline;opacity:1;fill:#000000;fill-opacity:1;stroke:none;stroke-width:0.15305778;stroke-miterlimit:4;stroke-dasharray:none;stroke-opacity:1" />
    <ellipse
       transform="matrix(-0.73431953,0.67880397,0.67880397,0.73431953,0,0)"
       ry="0.2045384"
       rx="0.85906124"
       cy="184.87413"
       cx="44.952908"
       id="path5193-1-7-7"
       style="display:inline;opacity:1;fill:#000000;fill-opacity:1;stroke:none;stroke-width:0.15305778;stroke-miterlimit:4;stroke-dasharray:none;stroke-opacity:1" />
    <ellipse
       transform="matrix(-0.79383077,0.60813873,0.60813873,0.79383077,0,0)"
       ry="0.2045384"
       rx="0.85906124"
       cy="185.00554"
       cx="27.339275"
       id="path5193-7-4-0"
       style="display:inline;opacity:1;fill:#000000;fill-opacity:1;stroke:none;stroke-width:0.15305778;stroke-miterlimit:4;stroke-dasharray:none;stroke-opacity:1" />
    <ellipse
       transform="matrix(-0.73431953,0.67880397,0.67880397,0.73431953,0,0)"
       ry="0.2045384"
       rx="0.85906124"
       cy="192.15625"
       cx="46.396526"
       id="path5193-4-1"
       style="display:inline;opacity:1;fill:#000000;fill-opacity:1;stroke:none;stroke-width:0.15305778;stroke-miterlimit:4;stroke-dasharray:none;stroke-opacity:1" />
    <ellipse
       transform="matrix(-0.9882384,-0.1529211,-0.1529211,0.9882384,0,0)"
       ry="0.23766828"
       rx="0.99820673"
       cy="140.4725"
       cx="-112.08951"
       id="path5193-7-0-4-7"
       style="display:inline;opacity:1;fill:#000000;fill-opacity:1;stroke:none;stroke-width:0.17784913;stroke-miterlimit:4;stroke-dasharray:none;stroke-opacity:1" />
    <ellipse
       transform="matrix(-0.9882384,-0.1529211,-0.1529211,0.9882384,0,0)"
       ry="0.23766828"
       rx="0.99820673"
       cy="136.48206"
       cx="-111.83604"
       id="path5193-7-0-2-6-2"
       style="display:inline;opacity:1;fill:#000000;fill-opacity:1;stroke:none;stroke-width:0.17784913;stroke-miterlimit:4;stroke-dasharray:none;stroke-opacity:1" />
    <ellipse
       transform="matrix(-0.92512213,-0.37966965,-0.37966965,0.92512213,0,0)"
       ry="0.23766826"
       rx="0.99820668"
       cy="102.6687"
       cx="-140.98181"
       id="path5193-7-0-3-0-6"
       style="display:inline;opacity:1;fill:#000000;fill-opacity:1;stroke:none;stroke-width:0.17784913;stroke-miterlimit:4;stroke-dasharray:none;stroke-opacity:1" />
    <ellipse
       transform="rotate(-28.830366)"
       ry="0.2045384"
       rx="0.85906124"
       cy="192.25571"
       cx="38.414379"
       id="path5193-7-0-32-4"
       style="display:inline;opacity:1;fill:#000000;fill-opacity:1;stroke:none;stroke-width:0.15305778;stroke-miterlimit:4;stroke-dasharray:none;stroke-opacity:1" />
    <ellipse
       transform="rotate(-28.830366)"
       ry="0.2045384"
       rx="0.85906124"
       cy="188.82152"
       cx="38.632507"
       id="path5193-7-0-2-7-75"
       style="display:inline;opacity:1;fill:#000000;fill-opacity:1;stroke:none;stroke-width:0.15305778;stroke-miterlimit:4;stroke-dasharray:none;stroke-opacity:1" />
    <ellipse
       transform="rotate(-42.347341)"
       ry="0.2045384"
       rx="0.85906124"
       cy="189.2706"
       cx="-6.8668442"
       id="path5193-7-0-3-09-5"
       style="display:inline;opacity:1;fill:#000000;fill-opacity:1;stroke:none;stroke-width:0.15305777;stroke-miterlimit:4;stroke-dasharray:none;stroke-opacity:1" />
    <ellipse
       transform="rotate(-68.176754)"
       ry="0.2045384"
       rx="0.85906124"
       cy="160.90529"
       cx="-86.807846"
       id="path5193-7-0-32-5-7"
       style="display:inline;opacity:1;fill:#000000;fill-opacity:1;stroke:none;stroke-width:0.15305777;stroke-miterlimit:4;stroke-dasharray:none;stroke-opacity:1" />
    <ellipse
       transform="rotate(-68.176754)"
       ry="0.2045384"
       rx="0.85906124"
       cy="157.47108"
       cx="-86.589706"
       id="path5193-7-0-2-7-7-1"
       style="display:inline;opacity:1;fill:#000000;fill-opacity:1;stroke:none;stroke-width:0.15305777;stroke-miterlimit:4;stroke-dasharray:none;stroke-opacity:1" />
    <ellipse
       transform="rotate(-81.69373)"
       ry="0.2045384"
       rx="0.85906124"
       cy="129.51996"
       cx="-121.29287"
       id="path5193-7-0-3-09-9-6"
       style="display:inline;opacity:1;fill:#000000;fill-opacity:1;stroke:none;stroke-width:0.15305777;stroke-miterlimit:4;stroke-dasharray:none;stroke-opacity:1" />
    <ellipse
       transform="rotate(-108.88011)"
       ry="0.2045384"
       rx="0.85906124"
       cy="51.701187"
       cx="-164.87881"
       id="path5193-7-0-32-5-4-1"
       style="display:inline;opacity:1;fill:#000000;fill-opacity:1;stroke:none;stroke-width:0.15305777;stroke-miterlimit:4;stroke-dasharray:none;stroke-opacity:1" />
    <ellipse
       transform="rotate(-108.88011)"
       ry="0.2045384"
       rx="0.85906124"
       cy="48.266998"
       cx="-164.66068"
       id="path5193-7-0-2-7-7-8-2"
       style="display:inline;opacity:1;fill:#000000;fill-opacity:1;stroke:none;stroke-width:0.15305777;stroke-miterlimit:4;stroke-dasharray:none;stroke-opacity:1" />
    <ellipse
       transform="rotate(-122.39708)"
       ry="0.2045384"
       rx="0.85906124"
       cy="5.0929313"
       cx="-171.67668"
       id="path5193-7-0-3-09-9-0-2"
       style="display:inline;opacity:1;fill:#000000;fill-opacity:1;stroke:none;stroke-width:0.15305777;stroke-miterlimit:4;stroke-dasharray:none;stroke-opacity:1" />
    <path
       id="path5446-6"
       d="m 102.9088,177.35672 -1.57193,-5.79925 c -0.33939,-1.25211 -6.17416,-8.78466 -6.464502,-12.93005 -0.492717,-7.03481 5.274612,-11.81827 12.943952,-12.42907 18.68279,0.88376 15.75515,16.0168 9.64146,23.73805 -0.64454,0.81402 -1.07865,5.37075 -1.4496,7.55999 z"
       style="display:inline;fill:#000000;stroke:#000000;stroke-width:0.08099307px;stroke-linecap:butt;stroke-linejoin:miter;stroke-opacity:1" />
    <path
       id="path5450-9-6"
       d="m 105.38584,185.41225 c 2.17811,0.96728 4.23681,1.72023 8.67244,0 -3.36676,4.26006 -6.10888,2.92391 -8.67244,0 z"
       style="display:inline;fill:#000000;stroke:#000000;stroke-width:0.08099307px;stroke-linecap:butt;stroke-linejoin:miter;stroke-opacity:1" />
    <path
       id="path5442-1"
       d="m 105.16169,177.38442 c -2.3348,0.0101 -1.82469,-3.1135 -2.33174,-5.15437 -0.95387,-3.83933 -5.697454,-6.74289 -6.62705,-12.76319 -2.402111,-15.5567 24.73174,-17.295 24.70825,-0.0409 -0.004,3.34474 -1.6525,6.13912 -4.04987,9.85875 -0.60451,0.93793 -0.94975,1.73237 -1.06359,3.68168 0.0657,1.56309 0.45975,3.9706 -1.14542,4.37713 -1.60517,0.40652 -6.32706,0.0273 -9.49058,0.0409 z"
       style="display:inline;fill:#ffffff;stroke:#000000;stroke-width:0.08099307px;stroke-linecap:butt;stroke-linejoin:miter;stroke-opacity:1" />
    <path
       id="path5448-1-2"
       d="m 102.13718,176.55222 0.5318,7.03612 c 2.69023,2.47319 7.44245,4.81175 13.99044,0.36818 l 0.49089,-7.47624 c -5.00437,1.59032 -10.00875,1.42443 -15.01313,0.0719 z"
       style="display:inline;fill:#000000;stroke:#000000;stroke-width:0.08099307px;stroke-linecap:butt;stroke-linejoin:miter;stroke-opacity:1" />
    <path
       id="path5452-2-1"
       d="m 103.40533,177.73855 c 2.98519,0.36422 4.29302,1.15541 12.92683,0.0818 -2.08443,1.1196 -6.80171,1.66318 -11.08599,0.77725 2.66327,1.05511 5.97354,1.2835 10.59509,-0.16363 l -0.0409,1.14541 c -2.86173,1.15613 -6.65649,1.00602 -10.59509,0.65453 3.1409,1.1411 6.51944,1.59568 10.636,-0.0818 l 0.0409,0.98178 c -2.99761,1.01236 -6.49297,1.30575 -10.47237,0.89997 1.94845,0.48324 3.1384,1.51183 10.30875,-0.28635 l 0.0409,1.0636 c -4.14921,1.53042 -6.67188,1.1985 -10.636,0.73634 2.77746,0.72067 5.09279,1.85396 10.79963,-0.0409 -3.08221,2.31346 -7.55102,2.74507 -12.2314,0.20454 z"
       style="display:inline;fill:#ffffff;stroke:#000000;stroke-width:0.08099307px;stroke-linecap:butt;stroke-linejoin:miter;stroke-opacity:1" />
    <path
       id="path4620-2-5"
       d="m 103.25742,163.04869 -1.48706,-2.31981 c -0.0545,-0.35321 -0.0557,-0.53459 -0.2069,-0.78794 -0.43579,-0.7301 -1.09118,-1.50446 -0.72499,-2.58271 -0.73678,-1.11123 -0.053,-1.50695 -0.13879,-2.3198 -0.11727,-1.13296 0.3999,-1.52793 0.75344,-1.86378 0.0321,-1.16466 0.73469,-1.34111 1.2293,-1.82412 0.85517,-0.67207 1.24706,-1.74481 2.99394,-1.64567 2.76,-1.3652 6.72051,-1.03137 8.9025,1.50688 0.67922,0.21961 1.0386,0.75908 1.18964,1.50688 0.50018,0.61117 1.06399,1.16136 0.95172,2.35946 0.21402,1.09769 0.29321,2.2271 0.0595,3.43014 -0.64102,1.68097 -1.60073,3.16181 -2.55694,4.58013 l -0.35769,-0.25776 c 0.66914,-1.10443 1.86591,-2.46205 1.82412,-3.39048 h -0.59482 c 1.4824,0.0681 1.93387,-3.51773 -0.31724,-2.91463 -0.52997,1.2263 -0.51722,1.88276 0.53534,1.4474 -0.45008,0.22405 -0.71808,0.63018 -0.93188,1.09051 0.008,-0.40926 0.21783,-0.92514 -0.23794,-1.09051 -0.95175,0.67161 -1.62344,0.55902 -2.3198,0.51551 1.77513,-0.15011 2.91793,-0.8398 2.71636,-2.67669 0.35546,0.32219 0.83665,0.59551 1.6655,0.73361 0.28893,-0.88469 -0.0654,-1.44776 -0.83275,-1.80429 l 0.75344,0.0991 c 0.01,-0.57986 0.0369,-1.16844 -0.67413,-1.38792 -0.54006,0.72187 -0.89832,0.54986 -1.25905,0.42629 1.28503,0.0885 1.70348,-1.84353 -0.18836,-2.30989 -0.34342,-0.41976 -1.1549,-1.53261 -1.0905,-0.75344 0.0375,0.45377 -0.36969,1.46234 1.14008,1.34826 0,0 -1.50562,1.07541 -1.37801,-1.52671 0.0377,-0.76794 -0.82679,-0.94959 -1.60602,-0.45603 -0.0221,0.459 -0.14931,0.92258 -0.77326,1.40775 -0.52357,1.2469 0.4359,1.03551 1.46722,0.75344 0.33979,0.0936 0.683,0.12229 0.97154,1.18965 2.71302,1.50517 0.37557,2.93387 -0.31724,3.56892 -2.45468,-1.8149 -3.5441,3.30728 -0.47585,2.31981 -0.29834,0.18598 -0.72559,0.24312 -0.97154,0.37672 l -0.0396,0.87241 c -0.29741,-1.22269 -0.63778,-0.84597 -1.26895,-1.74481 -0.54021,-0.13706 -0.77421,0.0321 -1.14999,0.0595 0.40312,-0.082 0.79738,-0.17999 1.07068,-0.49569 0.36817,-1.6875 1.34244,-2.00122 2.49825,-1.90343 2.50287,-0.1913 1.87388,-3.63073 -0.1388,-2.33963 0.51047,-0.60828 0.85509,-2.19742 -1.46722,-1.30861 -0.27072,0.37501 -0.32742,0.99307 -0.81292,1.30861 0.88152,-1.534 0.20953,-1.67409 0.30747,-2.35944 0.0979,-0.68536 0.98561,-1.03366 0.80286,-1.8638 -0.29406,-0.45712 -0.67091,-0.60676 -1.14998,-0.37672 0.32977,1.59448 -0.88109,2.26744 -1.5069,2.18102 0.45839,-0.30095 2.36953,-1.54621 0.59483,-2.41894 -1.40448,-0.26066 -4.51338,1.57906 -0.67413,1.18964 -0.73359,0.54759 -2.2891,0.25271 -2.08188,1.76464 -0.9738,-0.71333 -1.60401,0.5293 -1.5267,1.42757 -0.16907,-1.84422 -1.90315,-0.88206 -2.22068,0.7931 l 0.0991,-1.13017 c -1.03183,0.138 -1.82865,1.66444 -0.23793,2.63705 -0.3724,-0.0123 -0.73104,-0.16912 -1.05085,-0.73362 -0.22703,0.99242 0.0354,1.56527 0.73361,1.76464 -1.55703,2.11486 1.14557,1.80775 1.34827,2.73618 -0.48351,-0.13578 -1.25682,-0.18398 -0.93189,0.39655 l 1.48705,2.65687 z"
       style="display:inline;fill:#000000;stroke:#000000;stroke-width:0.03925624px;stroke-linecap:butt;stroke-linejoin:miter;stroke-opacity:1" />
    <path
       id="path4622-0-6"
       d="m 103.77293,151.26131 c 0.0553,-0.53765 2.25205,-1.90829 2.48833,-0.36681 0.0771,0.50292 -0.74583,0.91969 -2.11161,1.61593 -0.59105,0.007 -1.1429,0.11805 -1.57628,0.54526 -1.60695,0.0692 -0.0851,-1.27469 2.47843,-1.97283 -0.31821,-0.23388 -0.77683,-0.0867 -1.27887,0.17845 z"
       style="display:inline;fill:#ffffff;stroke:#000000;stroke-width:0.03925624px;stroke-linecap:butt;stroke-linejoin:miter;stroke-opacity:1" />
    <path
       id="path4624-7-9"
       d="m 102.58328,158.62719 c 1.18098,0.22525 2.11802,0.0672 2.00257,-1.74481 0.13495,0.38022 0.37031,0.568 0.0793,1.76463 0.69084,1.34993 -0.1287,1.50414 -0.23793,2.22067 -0.1678,0.47535 5.5e-4,0.90869 0.11897,1.34826 -0.32175,-0.62901 -0.54364,-1.2786 -0.89224,-1.14999 0.73359,-0.52884 1.38302,-0.97179 0.59483,-2.26032 -1.30594,0.41323 -1.29479,-0.003 -1.66551,-0.17844 z"
       style="display:inline;fill:#000000;stroke:#000000;stroke-width:0.03925624px;stroke-linecap:butt;stroke-linejoin:miter;stroke-opacity:1" />
    <path
       id="path4626-3-2"
       d="m 102.90052,157.10047 c 0.88891,-2.54731 2.9904,-1.53923 2.97411,-1.03181 -0.11113,3.46071 3.1961,3.10641 2.6767,-0.55438 l 0.4362,0.7931 c 1.06181,-0.11039 1.23637,-0.48103 1.19228,-1.18655 -0.0747,-1.19592 0.50391,-1.01459 0.71115,-1.33153 -0.81747,0.83221 -0.80478,2.98363 1.58619,1.56636 -0.36275,0.39831 -0.57146,0.87132 -2.12152,0.69397 -0.30995,0.32493 -0.78603,0.52906 -1.50688,0.55516 -0.0498,1.03171 -0.57183,1.70919 -1.3681,2.18101 0.12604,0.37365 0.31563,0.77908 0.51551,1.18965 -0.46528,-0.23158 -0.81922,-0.56337 -0.91205,-1.13017 -1.29321,-0.37373 -1.31182,-0.82245 -1.3681,-1.26895 -0.0301,-2.62193 -2.48093,-2.215 -2.55773,0 z"
       style="display:inline;fill:#000000;stroke:#000000;stroke-width:0.03925624px;stroke-linecap:butt;stroke-linejoin:miter;stroke-opacity:1" />
    <path
       id="path4628-2-9"
       d="m 107.18324,156.88238 c 0.35401,-0.77647 -0.35449,-1.52732 -0.29741,-2.47843 -0.0798,-0.48267 1.57941,-0.37058 2.00257,-1.50688 -1.05632,1.13602 -1.95218,0.61441 -2.79888,-0.36011 0.16567,1.99313 -0.93661,3.23532 -2.63723,1.99118 0.98361,1.15822 1.81115,1.18929 3.25509,-0.83798 -0.48559,1.3569 0.22065,2.17205 0.47586,3.19222 z"
       style="display:inline;fill:#000000;stroke:#000000;stroke-width:0.03925624px;stroke-linecap:butt;stroke-linejoin:miter;stroke-opacity:1" />
    <path
       id="path4630-7-9"
       d="m 106.11256,160.47113 c 0.29539,0.8179 0.0106,1.00721 -0.31724,1.14999 1.4783,-0.95219 1.79419,0.64062 2.29998,0.97155 -0.95842,-1.28963 0.13485,-1.13101 0.89223,-1.20948 0.84706,0.61238 1.54458,0.62663 2.18102,0.39655 -1.60326,0.16528 -2.20347,-0.44958 -1.90343,-1.76464 l -0.51551,1.0112 c -1.24074,0.6469 -1.9049,-0.0323 -2.63705,-0.55517 z"
       style="display:inline;fill:#000000;stroke:#000000;stroke-width:0.03925624px;stroke-linecap:butt;stroke-linejoin:miter;stroke-opacity:1" />
    <path
       id="path4632-6-0"
       d="m 111.82285,160.27286 c 0.75616,0.15914 1.51928,0.23446 2.37929,-0.85258 0.0287,1.15135 4.2e-4,2.24133 -0.59482,2.71636 0.65188,-1.94568 0.15426,-2.317 -1.62585,-0.9319 0.53338,-0.37234 0.30604,-0.66459 -0.15862,-0.93188 z"
       style="display:inline;fill:#000000;stroke:#000000;stroke-width:0.03925624px;stroke-linecap:butt;stroke-linejoin:miter;stroke-opacity:1" />
    <path
       id="path4676-5"
       d="m 103.02615,162.70359 c 1.52966,4.44187 3.15604,8.83538 4.39677,13.42171 -0.74843,-4.84233 -2.38279,-8.72737 -3.76896,-13.2154 z"
       style="display:inline;fill:#000000;stroke:#000000;stroke-width:0.08099307px;stroke-linecap:butt;stroke-linejoin:miter;stroke-opacity:1" />
    <path
       id="path4678-3"
       d="m 113.86507,162.83059 c -1.51318,3.58489 -2.52678,9.01561 -3.20242,13.5319 1.00883,-5.23454 2.28906,-9.70007 3.76038,-13.6242 z"
       style="display:inline;fill:#000000;stroke:#000000;stroke-width:0.08099307px;stroke-linecap:butt;stroke-linejoin:miter;stroke-opacity:1" />
    <path
       id="path4680-4"
       d="m 106.39316,178.09806 c -0.0773,-0.57852 -0.49626,-1.15705 -0.78099,-1.73557 -0.28058,-4.07626 8.28224,-2.23076 6.97118,0.0289 -0.24699,0.54273 -0.80048,0.85557 -0.63637,1.70663 h -0.28926 c -0.23774,-0.46652 0.19396,-1.1243 0.46281,-1.73556 0.53016,-2.53351 -6.715,-2.44707 -6.1034,0.0579 0.31726,0.54006 0.70721,1.07204 0.69423,1.64879 z"
       style="display:inline;fill:#000000;stroke:#000000;stroke-width:0.08099307px;stroke-linecap:butt;stroke-linejoin:miter;stroke-opacity:1" />
    <path
       id="path4685-2"
       d="m 103.65396,162.9099 c 3.04732,1.02755 6.64186,0.96065 10.76907,-0.17161 -3.19907,1.11745 -6.50647,1.94085 -10.76907,0.17161 z"
       style="display:inline;fill:#000000;stroke:#000000;stroke-width:0.08099307px;stroke-linecap:butt;stroke-linejoin:miter;stroke-opacity:1" />
    <path
       id="path827-15-8"
       d="m 92.75414,194.77396 35.15264,-0.0859"
       style="display:inline;fill:none;stroke:#000000;stroke-width:0.64315426;stroke-linecap:butt;stroke-linejoin:miter;stroke-miterlimit:4;stroke-dasharray:none;stroke-opacity:1" />
    <path
       id="path827-15-7-9"
       d="m 92.75414,192.18217 35.15264,-0.086"
       style="display:inline;fill:none;stroke:#000000;stroke-width:0.64315426;stroke-linecap:butt;stroke-linejoin:miter;stroke-miterlimit:4;stroke-dasharray:none;stroke-opacity:1" />
  </g>
  <g
     transform="translate(-87.660158,-135.08057)"
     style="display:none"
     id="layer2">
    <path
       id="path827-15"
       d="M 49.706492,54.879978 164.54106,54.599208"
       style="display:inline;fill:none;stroke:#000000;stroke-width:2.10101795;stroke-linecap:butt;stroke-linejoin:miter;stroke-miterlimit:4;stroke-dasharray:none;stroke-opacity:1" />
    <path
       id="path827-15-7"
       d="M 49.706495,46.413258 164.54106,46.132488"
       style="display:inline;fill:none;stroke:#000000;stroke-width:2.10101795;stroke-linecap:butt;stroke-linejoin:miter;stroke-miterlimit:4;stroke-dasharray:none;stroke-opacity:1" />
  </g>
</svg>
