<?xml version="1.0" encoding="UTF-8" standalone="no"?>
<svg
   xmlns:dc="http://purl.org/dc/elements/1.1/"
   xmlns:cc="http://creativecommons.org/ns#"
   xmlns:rdf="http://www.w3.org/1999/02/22-rdf-syntax-ns#"
   xmlns:svg="http://www.w3.org/2000/svg"
   xmlns="http://www.w3.org/2000/svg"
   id="svg4849"
   version="1.1"
   viewBox="0 0 80.191609 109.61393"
   height="414.28888"
   width="303.08636">
  <defs
     id="defs4843" />
  <metadata
     id="metadata4846">
    <rdf:RDF>
      <cc:Work
         rdf:about="">
        <dc:format>image/svg+xml</dc:format>
        <dc:type
           rdf:resource="http://purl.org/dc/dcmitype/StillImage" />
        <dc:title></dc:title>
      </cc:Work>
    </rdf:RDF>
  </metadata>
  <g
     transform="translate(-69.517301,-110.28108)"
     id="layer1">
    <path
       id="path5191-4"
       d="m 90.051367,180.44869 c -0.240772,-4.29474 -3.831654,-6.03702 -8.218708,-7.17269 v 0 c 0.782162,-2.56099 3.771013,-9.24329 -7.695713,-18.45474 9.375989,-8.96169 7.285298,-17.49868 6.276107,-26.07573 11.198724,2.45869 19.580562,-1.42064 26.001037,-9.71303 5.92097,8.29329 13.88824,7.17353 21.74222,6.57498 -0.81304,9.2452 3.90234,14.66303 13.44879,16.73628 -6.62184,8.83272 -4.86681,15.82254 -1.64374,22.48939 -13.62654,5.5445 -8.98561,13.7714 -8.144,15.83968 -2.42585,-0.51821 -3.99418,0.67863 -5.23008,2.54033"
       style="display:inline;fill:none;stroke:#000000;stroke-width:0.14792924px;stroke-linecap:butt;stroke-linejoin:miter;stroke-opacity:1" />
    <ellipse
       transform="rotate(42.750251)"
       ry="0.37357774"
       rx="1.5690265"
       cy="47.051544"
       cx="222.0882"
       id="path5193-5"
       style="display:inline;opacity:1;fill:#000000;fill-opacity:1;stroke:none;stroke-width:0.27955133;stroke-miterlimit:4;stroke-dasharray:none;stroke-opacity:1" />
    <path
       id="path5203-9"
       d="m 74.136946,154.82126 c -5.218239,-2.86622 -4.511404,0.46486 -4.511404,0.46486 0,0 0.657706,3.59131 4.511404,-0.46486 z"
       style="display:inline;fill:none;stroke:#000000;stroke-width:0.14792924px;stroke-linecap:butt;stroke-linejoin:miter;stroke-opacity:1" />
    <path
       id="path5203-0-4"
       d="m 81.832659,173.276 c -5.94211,-0.36948 -3.883265,2.34289 -3.883265,2.34289 0,0 2.125273,2.9687 3.883265,-2.34289 z"
       style="display:inline;fill:none;stroke:#000000;stroke-width:0.14792924px;stroke-linecap:butt;stroke-linejoin:miter;stroke-opacity:1" />
    <path
       id="path5235-3"
       d="m 80.413053,128.74553 c -4.845766,-1.98245 -6.808831,-4.07687 -5.678381,-4.70708 2.31341,-1.2897 4.217127,2.09517 5.678381,4.70708 z"
       style="display:inline;fill:none;stroke:#000000;stroke-width:0.14792924px;stroke-linecap:butt;stroke-linejoin:miter;stroke-opacity:1" />
    <path
       id="path5237-7"
       d="m 106.41409,119.0325 c -2.05715,-4.65865 -2.03096,-8.92029 0.29886,-8.66699 2.9622,0.32205 0.82554,6.06681 -0.29886,8.66699 z"
       style="display:inline;fill:none;stroke:#000000;stroke-width:0.14792924px;stroke-linecap:butt;stroke-linejoin:miter;stroke-opacity:1" />
    <path
       id="path5239-2"
       d="m 128.15631,125.60748 c 1.80281,-1.9951 4.63431,-6.15533 6.28701,-3.87042 1.80026,2.48892 -3.69502,3.06886 -6.28701,3.87042 z"
       style="display:inline;fill:none;stroke:#000000;stroke-width:0.14792924px;stroke-linecap:butt;stroke-linejoin:miter;stroke-opacity:1" />
    <path
       id="path5241-9"
       d="m 141.6051,142.34376 c 2.017,-2.71983 6.78512,-3.17407 7.17269,-2.91391 0.57143,0.38359 -1.25251,3.23705 -7.17269,2.91391 z"
       style="display:inline;fill:none;stroke:#000000;stroke-width:0.14792924px;stroke-linecap:butt;stroke-linejoin:miter;stroke-opacity:1" />
    <path
       id="path5243-5"
       d="m 139.96136,164.83315 c 2.67062,-0.28815 7.99373,1.441 6.55867,3.23211 -1.38908,1.73372 -4.05922,0.32124 -6.55867,-3.23211 z"
       style="display:inline;fill:none;stroke:#000000;stroke-width:0.14792924px;stroke-linecap:butt;stroke-linejoin:miter;stroke-opacity:1" />
    <path
       id="path5260-0"
       d="m 131.81736,180.67283 c 1.3076,2.15915 3.00193,3.59425 3.56543,2.24864 0.42956,-1.02575 -2.1747,-1.72264 -3.56543,-2.24864 z"
       style="display:inline;fill:none;stroke:#000000;stroke-width:0.14792924px;stroke-linecap:butt;stroke-linejoin:miter;stroke-opacity:1" />
    <ellipse
       transform="rotate(42.750251)"
       ry="0.37357774"
       rx="1.5690265"
       cy="37.451866"
       cx="222.67685"
       id="path5193-1-3"
       style="display:inline;opacity:1;fill:#000000;fill-opacity:1;stroke:none;stroke-width:0.27955133;stroke-miterlimit:4;stroke-dasharray:none;stroke-opacity:1" />
    <ellipse
       transform="rotate(37.455042)"
       ry="0.37357774"
       rx="1.5690265"
       cy="52.001648"
       cx="218.0312"
       id="path5193-7-9"
       style="display:inline;opacity:1;fill:#000000;fill-opacity:1;stroke:none;stroke-width:0.27955133;stroke-miterlimit:4;stroke-dasharray:none;stroke-opacity:1" />
    <ellipse
       transform="rotate(14.369617)"
       ry="0.37357774"
       rx="1.5690265"
       cy="117.82066"
       cx="181.15117"
       id="path5193-7-0-47"
       style="display:inline;opacity:1;fill:#000000;fill-opacity:1;stroke:none;stroke-width:0.27955133;stroke-miterlimit:4;stroke-dasharray:none;stroke-opacity:1" />
    <ellipse
       transform="rotate(14.369617)"
       ry="0.37357774"
       rx="1.5690265"
       cy="111.54833"
       cx="181.54958"
       id="path5193-7-0-2-1"
       style="display:inline;opacity:1;fill:#000000;fill-opacity:1;stroke:none;stroke-width:0.27955133;stroke-miterlimit:4;stroke-dasharray:none;stroke-opacity:1" />
    <ellipse
       transform="rotate(0.85264284)"
       ry="0.37357774"
       rx="1.5690265"
       cy="144.77339"
       cx="149.90875"
       id="path5193-7-0-3-8"
       style="display:inline;opacity:1;fill:#000000;fill-opacity:1;stroke:none;stroke-width:0.27955133;stroke-miterlimit:4;stroke-dasharray:none;stroke-opacity:1" />
    <ellipse
       transform="matrix(-0.73431953,0.67880397,0.67880397,0.73431953,0,0)"
       ry="0.37357774"
       rx="1.5690265"
       cy="175.98238"
       cx="56.011974"
       id="path5193-1-7-7"
       style="display:inline;opacity:1;fill:#000000;fill-opacity:1;stroke:none;stroke-width:0.27955133;stroke-miterlimit:4;stroke-dasharray:none;stroke-opacity:1" />
    <ellipse
       transform="matrix(-0.79383077,0.60813873,0.60813873,0.79383077,0,0)"
       ry="0.37357774"
       rx="1.5690265"
       cy="174.50443"
       cx="38.874016"
       id="path5193-7-4-0"
       style="display:inline;opacity:1;fill:#000000;fill-opacity:1;stroke:none;stroke-width:0.27955133;stroke-miterlimit:4;stroke-dasharray:none;stroke-opacity:1" />
    <ellipse
       transform="matrix(-0.73431953,0.67880397,0.67880397,0.73431953,0,0)"
       ry="0.37357774"
       rx="1.5690265"
       cy="189.28275"
       cx="58.648659"
       id="path5193-4-1"
       style="display:inline;opacity:1;fill:#000000;fill-opacity:1;stroke:none;stroke-width:0.27955133;stroke-miterlimit:4;stroke-dasharray:none;stroke-opacity:1" />
    <ellipse
       transform="matrix(-0.9882384,-0.1529211,-0.1529211,0.9882384,0,0)"
       ry="0.43408757"
       rx="1.8231678"
       cy="135.58682"
       cx="-94.337669"
       id="path5193-7-0-4-7"
       style="display:inline;opacity:1;fill:#000000;fill-opacity:1;stroke:none;stroke-width:0.32483131;stroke-miterlimit:4;stroke-dasharray:none;stroke-opacity:1" />
    <ellipse
       transform="matrix(-0.9882384,-0.1529211,-0.1529211,0.9882384,0,0)"
       ry="0.43408757"
       rx="1.8231678"
       cy="128.29851"
       cx="-93.874725"
       id="path5193-7-0-2-6-2"
       style="display:inline;opacity:1;fill:#000000;fill-opacity:1;stroke:none;stroke-width:0.32483131;stroke-miterlimit:4;stroke-dasharray:none;stroke-opacity:1" />
    <ellipse
       transform="matrix(-0.92512213,-0.37966965,-0.37966965,0.92512213,0,0)"
       ry="0.43408754"
       rx="1.8231677"
       cy="95.692581"
       cx="-121.88882"
       id="path5193-7-0-3-0-6"
       style="display:inline;opacity:1;fill:#000000;fill-opacity:1;stroke:none;stroke-width:0.32483131;stroke-miterlimit:4;stroke-dasharray:none;stroke-opacity:1" />
    <ellipse
       transform="rotate(-28.830366)"
       ry="0.37357774"
       rx="1.5690265"
       cy="187.93565"
       cx="56.592922"
       id="path5193-7-0-32-4"
       style="display:inline;opacity:1;fill:#000000;fill-opacity:1;stroke:none;stroke-width:0.27955133;stroke-miterlimit:4;stroke-dasharray:none;stroke-opacity:1" />
    <ellipse
       transform="rotate(-28.830366)"
       ry="0.37357774"
       rx="1.5690265"
       cy="181.66328"
       cx="56.991325"
       id="path5193-7-0-2-7-75"
       style="display:inline;opacity:1;fill:#000000;fill-opacity:1;stroke:none;stroke-width:0.27955133;stroke-miterlimit:4;stroke-dasharray:none;stroke-opacity:1" />
    <ellipse
       transform="rotate(-42.347341)"
       ry="0.37357774"
       rx="1.5690265"
       cy="183.83279"
       cx="12.412467"
       id="path5193-7-0-3-09-5"
       style="display:inline;opacity:1;fill:#000000;fill-opacity:1;stroke:none;stroke-width:0.2795513;stroke-miterlimit:4;stroke-dasharray:none;stroke-opacity:1" />
    <ellipse
       transform="rotate(-68.176754)"
       ry="0.37357774"
       rx="1.5690265"
       cy="159.06812"
       cx="-65.567337"
       id="path5193-7-0-32-5-7"
       style="display:inline;opacity:1;fill:#000000;fill-opacity:1;stroke:none;stroke-width:0.2795513;stroke-miterlimit:4;stroke-dasharray:none;stroke-opacity:1" />
    <ellipse
       transform="rotate(-68.176754)"
       ry="0.37357774"
       rx="1.5690265"
       cy="152.79576"
       cx="-65.168922"
       id="path5193-7-0-2-7-7-1"
       style="display:inline;opacity:1;fill:#000000;fill-opacity:1;stroke:none;stroke-width:0.2795513;stroke-miterlimit:4;stroke-dasharray:none;stroke-opacity:1" />
    <ellipse
       transform="rotate(-81.69373)"
       ry="0.37357774"
       rx="1.5690265"
       cy="127.212"
       cx="-99.616745"
       id="path5193-7-0-3-09-9-6"
       style="display:inline;opacity:1;fill:#000000;fill-opacity:1;stroke:none;stroke-width:0.2795513;stroke-miterlimit:4;stroke-dasharray:none;stroke-opacity:1" />
    <ellipse
       transform="rotate(-108.88011)"
       ry="0.37357774"
       rx="1.5690265"
       cy="52.863327"
       cx="-142.73286"
       id="path5193-7-0-32-5-4-1"
       style="display:inline;opacity:1;fill:#000000;fill-opacity:1;stroke:none;stroke-width:0.2795513;stroke-miterlimit:4;stroke-dasharray:none;stroke-opacity:1" />
    <ellipse
       transform="rotate(-108.88011)"
       ry="0.37357774"
       rx="1.5690265"
       cy="46.590973"
       cx="-142.33444"
       id="path5193-7-0-2-7-7-8-2"
       style="display:inline;opacity:1;fill:#000000;fill-opacity:1;stroke:none;stroke-width:0.2795513;stroke-miterlimit:4;stroke-dasharray:none;stroke-opacity:1" />
    <ellipse
       transform="rotate(-122.39708)"
       ry="0.37357774"
       rx="1.5690265"
       cy="5.9127917"
       cx="-149.82123"
       id="path5193-7-0-3-09-9-0-2"
       style="display:inline;opacity:1;fill:#000000;fill-opacity:1;stroke:none;stroke-width:0.2795513;stroke-miterlimit:4;stroke-dasharray:none;stroke-opacity:1" />
    <path
       id="path5446-6"
       d="m 97.368075,187.49607 -2.871031,-10.592 c -0.619877,-2.28691 -11.276759,-16.04468 -11.807052,-23.61599 -0.89992,-12.84868 9.63378,-21.5854 23.641388,-22.70099 34.12305,1.61413 28.77588,29.25377 17.60958,43.35619 -1.17721,1.48676 -1.9701,9.80938 -2.64761,13.8079 z"
       style="display:inline;fill:#000000;stroke:#000000;stroke-width:0.14792924px;stroke-linecap:butt;stroke-linejoin:miter;stroke-opacity:1" />
    <path
       id="path5450-9-6"
       d="m 101.89225,202.20904 c 3.9782,1.76669 7.7383,3.1419 15.83971,0 -6.14919,7.78076 -11.15752,5.34036 -15.83971,0 z"
       style="display:inline;fill:#000000;stroke:#000000;stroke-width:0.14792924px;stroke-linecap:butt;stroke-linejoin:miter;stroke-opacity:1" />
    <path
       id="path5442-1"
       d="m 101.48285,187.54667 c -4.264368,0.0184 -3.332691,-5.68664 -4.258783,-9.41417 -1.742191,-7.01231 -10.40608,-12.3155 -12.103934,-23.31124 -4.387319,-28.41342 45.171107,-31.58832 45.128217,-0.0747 -0.008,6.10898 -3.0182,11.21275 -7.39686,18.00645 -1.10411,1.71307 -1.73467,3.16407 -1.94259,6.72438 0.12006,2.8549 0.8397,7.25207 -2.09204,7.99457 -2.93176,0.7425 -11.55601,0.0498 -17.33401,0.0747 z"
       style="display:inline;fill:#ffffff;stroke:#000000;stroke-width:0.14792924px;stroke-linecap:butt;stroke-linejoin:miter;stroke-opacity:1" />
    <path
       id="path5448-1-2"
       d="m 95.958766,186.02671 0.971302,12.85107 c 4.913552,4.51714 13.593212,8.78839 25.552732,0.67245 l 0.89658,-13.65493 c -9.1402,2.90464 -18.2804,2.60164 -27.420614,0.13141 z"
       style="display:inline;fill:#000000;stroke:#000000;stroke-width:0.14792924px;stroke-linecap:butt;stroke-linejoin:miter;stroke-opacity:1" />
    <path
       id="path5452-2-1"
       d="m 98.274957,188.19346 c 5.452283,0.66524 7.840963,2.1103 23.610123,0.14943 -3.80709,2.04489 -12.42293,3.0377 -20.24793,1.4196 4.86431,1.9271 10.91034,2.34424 19.35133,-0.29886 l -0.0747,2.09203 c -5.22679,2.1116 -12.1577,1.83743 -19.35133,1.19545 5.73667,2.08416 11.90738,2.91442 19.42604,-0.14943 l 0.0747,1.79317 c -5.47497,1.84901 -11.85905,2.38487 -19.12719,1.64374 3.55872,0.88261 5.7321,2.76127 18.82833,-0.52301 l 0.0747,1.94261 c -7.5783,2.79523 -12.18581,2.189 -19.42605,1.34488 5.07287,1.31626 9.30168,3.38615 19.72491,-0.0747 -5.62949,4.22541 -13.79152,5.01372 -22.339965,0.37358 z"
       style="display:inline;fill:#ffffff;stroke:#000000;stroke-width:0.14792924px;stroke-linecap:butt;stroke-linejoin:miter;stroke-opacity:1" />
    <path
       id="path4620-2-5"
       d="m 98.004804,161.36328 -2.716027,-4.237 c -0.09959,-0.64512 -0.101677,-0.9764 -0.377885,-1.43913 -0.795939,-1.33349 -1.992973,-2.74781 -1.324146,-4.71718 -1.345693,-2.0296 -0.09684,-2.75235 -0.253497,-4.23699 -0.214198,-2.06928 0.7304,-2.79066 1.376114,-3.40408 0.05855,-2.12718 1.341874,-2.44946 2.24525,-3.33165 1.561915,-1.2275 2.277684,-3.18679 5.468247,-3.00573 5.041,-2.49346 12.27463,-1.88374 16.25991,2.75223 1.24057,0.40112 1.89696,1.38642 2.17282,2.75224 0.91355,1.11626 1.94331,2.12116 1.73826,4.30942 0.39089,2.00486 0.53554,4.06767 0.10864,6.26496 -1.17079,3.07019 -2.92365,5.77485 -4.6701,8.36534 l -0.6533,-0.47078 c 1.22214,-2.01719 3.40797,-4.49679 3.33165,-6.19252 h -1.08641 c 2.70751,0.12438 3.53211,-6.42494 -0.57942,-5.32341 -0.96796,2.23977 -0.94468,3.43875 0.97777,2.6436 -0.82205,0.40921 -1.31154,1.15099 -1.70204,1.99175 0.014,-0.7475 0.39787,-1.68972 -0.43457,-1.99175 -1.73833,1.22666 -2.96513,1.02102 -4.23698,0.94155 3.24216,-0.27417 5.32943,-1.53385 4.96127,-4.88883 0.64922,0.58847 1.52809,1.08766 3.04194,1.3399 0.52771,-1.61584 -0.11943,-2.64425 -1.52097,-3.29544 l 1.37611,0.18107 c 0.0178,-1.05909 0.0674,-2.13409 -1.23126,-2.53496 -0.98639,1.31845 -1.64073,1.00429 -2.29957,0.77859 2.34703,0.16172 3.11131,-3.36711 -0.34403,-4.21888 -0.62725,-0.76668 -2.10936,-2.79922 -1.99174,-1.37611 0.0685,0.82878 -0.67522,2.67088 2.08228,2.46252 0,0 -2.74993,1.96417 -2.51684,-2.78845 0.0688,-1.4026 -1.5101,-1.73438 -2.93331,-0.83292 -0.0403,0.83834 -0.2727,1.68504 -1.41232,2.57117 -0.95626,2.2774 0.79614,1.8913 2.6798,1.37612 0.62061,0.17089 1.24745,0.22335 1.77445,2.17282 4.95518,2.74911 0.68596,5.35856 -0.57941,6.51844 -4.48333,-3.31482 -6.4731,6.04056 -0.86912,4.237 -0.54489,0.33968 -1.32525,0.44405 -1.77446,0.68806 l -0.0724,1.5934 c -0.5432,-2.23317 -1.16487,-1.54512 -2.31766,-3.1868 -0.98667,-0.25032 -1.41405,0.0587 -2.10039,0.10864 0.73627,-0.1498 1.45636,-0.32873 1.95553,-0.90534 0.67245,-3.08213 2.45189,-3.65512 4.56291,-3.47651 4.57135,-0.3494 3.42253,-6.63133 -0.2535,-4.2732 0.93233,-1.11099 1.56177,-4.01347 -2.67981,-2.39011 -0.49445,0.68494 -0.59801,1.8138 -1.48474,2.39011 1.61004,-2.80176 0.3827,-3.05764 0.56157,-4.30939 0.17888,-1.25177 1.80016,-1.88792 1.46639,-3.40412 -0.53709,-0.8349 -1.22539,-1.10822 -2.10039,-0.68806 0.60231,2.91223 -1.60926,4.14135 -2.75225,3.98351 0.83721,-0.54966 4.3278,-2.82407 1.08641,-4.41806 -2.5652,-0.47608 -8.243424,2.88406 -1.23125,2.17281 -1.33987,1.00014 -4.18092,0.46156 -3.80245,3.22301 -1.77859,-1.30285 -2.92962,0.96674 -2.78843,2.60738 -0.30879,-3.36835 -3.475989,-1.61102 -4.055936,1.44855 l 0.181072,-2.06418 c -1.884585,0.25205 -3.339923,3.04 -0.434564,4.81641 -0.680165,-0.0225 -1.335198,-0.30888 -1.919321,-1.3399 -0.414659,1.81259 0.06473,2.85886 1.339907,3.22301 -2.843843,3.86266 2.092312,3.30174 2.462529,4.99748 -0.88311,-0.24801 -2.295503,-0.33604 -1.702043,0.72427 l 2.71602,4.85262 z"
       style="display:inline;fill:#000000;stroke:#000000;stroke-width:0.0716993px;stroke-linecap:butt;stroke-linejoin:miter;stroke-opacity:1" />
    <path
       id="path4622-0-6"
       d="m 98.94636,139.83429 c 0.10103,-0.98198 4.11324,-3.48537 4.5448,-0.66996 0.14081,0.91857 -1.36223,1.67977 -3.856745,2.95141 -1.079521,0.0124 -2.087433,0.21561 -2.878983,0.99588 -2.934998,0.12639 -0.155447,-2.32815 4.526708,-3.60325 -0.58119,-0.42717 -1.418825,-0.15828 -2.33578,0.32592 z"
       style="display:inline;fill:#ffffff;stroke:#000000;stroke-width:0.0716993px;stroke-linecap:butt;stroke-linejoin:miter;stroke-opacity:1" />
    <path
       id="path4624-7-9"
       d="m 96.773542,153.28765 c 2.15699,0.41141 3.868428,0.12267 3.657568,-3.1868 0.24649,0.69445 0.67636,1.03742 0.14486,3.223 1.26178,2.46558 -0.23506,2.74723 -0.43456,4.05593 -0.306475,0.86821 0.001,1.65968 0.21728,2.46253 -0.587648,-1.14885 -0.99293,-2.3353 -1.629614,-2.10039 1.339854,-0.96591 2.526004,-1.77493 1.08641,-4.12835 -2.385222,0.75473 -2.364855,-0.005 -3.041944,-0.32592 z"
       style="display:inline;fill:#000000;stroke:#000000;stroke-width:0.0716993px;stroke-linecap:butt;stroke-linejoin:miter;stroke-opacity:1" />
    <path
       id="path4626-3-2"
       d="m 97.352957,150.49919 c 1.62355,-4.65252 5.461793,-2.81131 5.432043,-1.88455 -0.20297,6.3208 5.83749,5.67369 4.88884,-1.01254 l 0.7967,1.44855 c 1.93932,-0.20161 2.25815,-0.87857 2.17763,-2.16717 -0.1365,-2.18428 0.92035,-1.85309 1.29887,-2.43196 -1.49306,1.51998 -1.46989,5.44943 2.89709,2.86088 -0.66255,0.72749 -1.04375,1.5914 -3.87485,1.26748 -0.5661,0.59348 -1.43563,0.96631 -2.75223,1.01398 -0.0909,1.88436 -1.0444,3.12173 -2.49874,3.98349 0.23019,0.68245 0.57648,1.42294 0.94154,2.17282 -0.8498,-0.42297 -1.49626,-1.02896 -1.66581,-2.06418 -2.36197,-0.6826 -2.39596,-1.50216 -2.49875,-2.31767 -0.0549,-4.78881 -4.531273,-4.04557 -4.671552,0 z"
       style="display:inline;fill:#000000;stroke:#000000;stroke-width:0.0716993px;stroke-linecap:butt;stroke-linejoin:miter;stroke-opacity:1" />
    <path
       id="path4628-2-9"
       d="m 105.1751,150.10085 c 0.64658,-1.41817 -0.64746,-2.78955 -0.54321,-4.52671 -0.14583,-0.88157 2.8847,-0.67684 3.65758,-2.75222 -1.92931,2.07488 -3.56553,1.12219 -5.11198,-0.65773 0.30257,3.64034 -1.71067,5.90914 -4.816763,3.63678 1.796513,2.11543 3.307963,2.17218 5.945243,-1.53052 -0.88691,2.4783 0.40301,3.96712 0.86913,5.8304 z"
       style="display:inline;fill:#000000;stroke:#000000;stroke-width:0.0716993px;stroke-linecap:butt;stroke-linejoin:miter;stroke-opacity:1" />
    <path
       id="path4630-7-9"
       d="m 103.21957,156.65551 c 0.5395,1.49384 0.0193,1.8396 -0.57943,2.10039 2.70004,-1.73912 3.27699,1.17006 4.20078,1.77447 -1.7505,-2.35543 0.2463,-2.06571 1.62962,-2.20903 1.54709,1.11846 2.82108,1.1445 3.9835,0.72427 -2.92826,0.30188 -4.02452,-0.82113 -3.47651,-3.22302 l -0.94155,1.84691 c -2.26613,1.18151 -3.47918,-0.0591 -4.81641,-1.01399 z"
       style="display:inline;fill:#000000;stroke:#000000;stroke-width:0.0716993px;stroke-linecap:butt;stroke-linejoin:miter;stroke-opacity:1" />
    <path
       id="path4632-6-0"
       d="m 113.64909,156.29337 c 1.38107,0.29066 2.77488,0.42824 4.34563,-1.55718 0.0525,2.10287 7.6e-4,4.09366 -1.08641,4.96127 1.19063,-3.55366 0.28175,-4.23187 -2.96952,-1.70205 0.97419,-0.68006 0.55897,-1.21385 -0.2897,-1.70204 z"
       style="display:inline;fill:#000000;stroke:#000000;stroke-width:0.0716993px;stroke-linecap:butt;stroke-linejoin:miter;stroke-opacity:1" />
    <path
       id="path4676-5"
       d="m 97.582412,160.73296 c 2.793828,8.11283 5.764328,16.13732 8.030448,24.514 -1.36697,-8.84424 -4.35203,-15.94004 -6.883784,-24.13718 z"
       style="display:inline;fill:#000000;stroke:#000000;stroke-width:0.14792924px;stroke-linecap:butt;stroke-linejoin:miter;stroke-opacity:1" />
    <path
       id="path4678-3"
       d="m 117.37909,160.96493 c -2.76374,6.54759 -4.61503,16.4665 -5.84905,24.71524 1.84257,-9.56058 4.18084,-17.71662 6.86813,-24.88382 z"
       style="display:inline;fill:#000000;stroke:#000000;stroke-width:0.14792924px;stroke-linecap:butt;stroke-linejoin:miter;stroke-opacity:1" />
    <path
       id="path4680-4"
       d="m 103.73207,188.85009 c -0.14116,-1.05664 -0.9064,-2.11328 -1.42645,-3.16992 -0.51246,-7.44505 15.12704,-4.07435 12.73247,0.0528 -0.45111,0.99126 -1.46203,1.56266 -1.16229,3.11707 h -0.52832 c -0.43421,-0.85207 0.35425,-2.05348 0.8453,-3.16991 0.96831,-4.62731 -12.26456,-4.46943 -11.14752,0.10567 0.57947,0.98638 1.29168,1.95801 1.26797,3.01142 z"
       style="display:inline;fill:#000000;stroke:#000000;stroke-width:0.14792924px;stroke-linecap:butt;stroke-linejoin:miter;stroke-opacity:1" />
    <path
       id="path4685-2"
       d="m 98.729069,161.10978 c 5.565751,1.87677 12.130971,1.75457 19.669101,-0.31343 -5.84292,2.04096 -11.88371,3.54485 -19.669101,0.31343 z"
       style="display:inline;fill:#000000;stroke:#000000;stroke-width:0.14792924px;stroke-linecap:butt;stroke-linejoin:miter;stroke-opacity:1" />
    <path
       id="path827-15-8"
       d="M 78.821169,219.30768 143.02547,219.1507"
       style="display:inline;fill:none;stroke:#000000;stroke-width:1.17468464;stroke-linecap:butt;stroke-linejoin:miter;stroke-miterlimit:4;stroke-dasharray:none;stroke-opacity:1" />
    <path
       id="path827-15-7-9"
       d="m 78.821169,214.57392 64.204301,-0.15698"
       style="display:inline;fill:none;stroke:#000000;stroke-width:1.17468464;stroke-linecap:butt;stroke-linejoin:miter;stroke-miterlimit:4;stroke-dasharray:none;stroke-opacity:1" />
  </g>
  <g
     transform="translate(-69.517301,-110.28108)"
     style="display:none"
     id="layer2">
    <path
       id="path827-15"
       d="M 49.706492,54.879978 164.54106,54.599208"
       style="display:inline;fill:none;stroke:#000000;stroke-width:2.10101795;stroke-linecap:butt;stroke-linejoin:miter;stroke-miterlimit:4;stroke-dasharray:none;stroke-opacity:1" />
    <path
       id="path827-15-7"
       d="M 49.706495,46.413258 164.54106,46.132488"
       style="display:inline;fill:none;stroke:#000000;stroke-width:2.10101795;stroke-linecap:butt;stroke-linejoin:miter;stroke-miterlimit:4;stroke-dasharray:none;stroke-opacity:1" />
  </g>
</svg>
