<?xml version="1.0" encoding="UTF-8" standalone="no"?>
<svg
   xmlns:dc="http://purl.org/dc/elements/1.1/"
   xmlns:cc="http://creativecommons.org/ns#"
   xmlns:rdf="http://www.w3.org/1999/02/22-rdf-syntax-ns#"
   xmlns:svg="http://www.w3.org/2000/svg"
   xmlns="http://www.w3.org/2000/svg"
   id="svg8236"
   version="1.1"
   viewBox="0 0 89.346985 137.43065"
   height="137.43065mm"
   width="89.346985mm">
  <defs
     id="defs8230" />
  <metadata
     id="metadata8233">
    <rdf:RDF>
      <cc:Work
         rdf:about="">
        <dc:format>image/svg+xml</dc:format>
        <dc:type
           rdf:resource="http://purl.org/dc/dcmitype/StillImage" />
        <dc:title></dc:title>
      </cc:Work>
    </rdf:RDF>
  </metadata>
  <g
     transform="translate(-61.986836,-77.800484)"
     id="layer1">
    <path
       id="path5446"
       d="m 88.467849,179.7193 -5.13507,-18.94466 c -1.1087,-4.0903 -20.169371,-28.69719 -21.117841,-42.23907 -1.60958,-22.980895 17.230781,-38.607225 42.284492,-40.602545 61.03183,2.88699 51.46798,52.322705 31.49617,77.546005 -2.10555,2.65919 -3.52369,17.54487 -4.73547,24.69653 z"
       style="display:inline;fill:#000000;stroke:#000000;stroke-width:0.26458332px;stroke-linecap:butt;stroke-linejoin:miter;stroke-opacity:1" />
    <path
       id="path5450-9"
       d="m 96.370714,206.2236 c 7.115306,3.15987 13.840556,5.61956 28.330576,1e-5 -10.99831,13.91651 -19.95612,9.55166 -28.330576,-1e-5 z"
       style="display:inline;fill:#000000;stroke:#000000;stroke-width:0.26458332px;stroke-linecap:butt;stroke-linejoin:miter;stroke-opacity:1" />
    <path
       id="path5442"
       d="m 95.827454,179.8098 c -7.627165,0.0329 -5.96078,-10.17102 -7.617177,-16.838 -3.116048,-12.54209 -18.612088,-22.02726 -21.648838,-41.69404 -7.847071,-50.819665 80.792131,-56.498215 80.715411,-0.13361 -0.0149,10.92641 -5.39827,20.05491 -13.22987,32.20597 -1.97479,3.06397 -3.10261,5.65921 -3.47448,12.02711 0.21475,5.10621 1.50189,12.97091 -3.74179,14.29893 -5.24366,1.32802 -20.66885,0.0891 -31.003256,0.13364 z"
       style="display:inline;fill:#ffffff;stroke:#000000;stroke-width:0.26458332px;stroke-linecap:butt;stroke-linejoin:miter;stroke-opacity:1" />
    <path
       id="path5448-1"
       d="m 85.947187,177.09123 1.737252,22.98517 c 8.788285,8.07926 24.312541,15.71872 45.703101,1.20272 l 1.60361,-24.42293 c -16.34799,5.19518 -32.69598,4.65323 -49.043963,0.23504 z"
       style="display:inline;fill:#000000;stroke:#000000;stroke-width:0.26458332px;stroke-linecap:butt;stroke-linejoin:miter;stroke-opacity:1" />
    <path
       id="path5452-2"
       d="m 90.089874,180.96663 c 9.75185,1.18983 14.024196,3.77445 42.228596,0.26727 -6.80928,3.65745 -22.21939,5.43316 -36.215046,2.53906 8.700216,3.44678 19.514026,4.19287 34.611426,-0.53453 l -0.13364,3.74177 c -9.34853,3.77677 -21.74503,3.28638 -34.611396,2.13816 10.260486,3.72769 21.297296,5.21266 34.745036,-0.26728 l 0.13364,3.20724 c -9.79243,3.30709 -21.21087,4.26552 -34.210526,2.93996 6.365056,1.57862 10.252326,4.93875 33.675986,-0.93544 l 0.13363,3.4745 c -13.55439,4.99949 -21.7953,3.91521 -34.745036,2.40543 9.073216,2.35424 16.636776,6.0564 35.279576,-0.13363 -10.06879,7.55748 -24.66724,8.96744 -39.956806,0.66817 z"
       style="display:inline;fill:#ffffff;stroke:#000000;stroke-width:0.26458332px;stroke-linecap:butt;stroke-linejoin:miter;stroke-opacity:1" />
    <path
       id="path4676"
       d="m 90.119964,129.52006 c 4.99698,14.51044 10.309956,28.86289 14.363116,43.84525 -2.44495,-15.81863 -7.783976,-28.51003 -12.312216,-43.17127 z"
       style="display:inline;fill:#000000;stroke:#000000;stroke-width:0.26458332px;stroke-linecap:butt;stroke-linejoin:miter;stroke-opacity:1" />
    <path
       id="path4678"
       d="m 125.52794,129.93496 c -4.94318,11.71089 -8.25436,29.45165 -10.4615,44.20518 3.29558,-17.09986 7.47778,-31.68759 12.28421,-44.5067 z"
       style="display:inline;fill:#000000;stroke:#000000;stroke-width:0.26458332px;stroke-linecap:butt;stroke-linejoin:miter;stroke-opacity:1" />
    <path
       id="path4680"
       d="m 101.11913,179.8098 c -0.25247,-1.88988 -1.621166,-3.77977 -2.551336,-5.66965 -0.91656,-13.31608 27.055966,-7.2873 22.773086,0.0945 -0.80687,1.77295 -2.61499,2.79495 -2.07886,5.57514 h -0.94495 c -0.77662,-1.524 0.63362,-3.67282 1.5119,-5.66965 1.7319,-8.27631 -21.936176,-7.99392 -19.938256,0.189 1.036426,1.76423 2.310286,3.50207 2.267866,5.38617 z"
       style="display:inline;fill:#000000;stroke:#000000;stroke-width:0.26458332px;stroke-linecap:butt;stroke-linejoin:miter;stroke-opacity:1" />
    <path
       id="path4685"
       d="m 92.170854,130.19403 c 9.954796,3.35675 21.697246,3.13818 35.179796,-0.5606 -10.45054,3.65043 -21.25499,6.34025 -35.179796,0.5606 z"
       style="display:inline;fill:#000000;stroke:#000000;stroke-width:0.26458332px;stroke-linecap:butt;stroke-linejoin:miter;stroke-opacity:1" />
  </g>
</svg>
