<?xml version="1.0" encoding="UTF-8" standalone="no"?>
<svg
   xmlns:dc="http://purl.org/dc/elements/1.1/"
   xmlns:cc="http://creativecommons.org/ns#"
   xmlns:rdf="http://www.w3.org/1999/02/22-rdf-syntax-ns#"
   xmlns:svg="http://www.w3.org/2000/svg"
   xmlns="http://www.w3.org/2000/svg"
   id="svg5252"
   version="1.1"
   viewBox="0 0 169.6573 100.84704"
   height="100.84704mm"
   width="169.6573mm">
  <defs
     id="defs5246" />
  <metadata
     id="metadata5249">
    <rdf:RDF>
      <cc:Work
         rdf:about="">
        <dc:format>image/svg+xml</dc:format>
        <dc:type
           rdf:resource="http://purl.org/dc/dcmitype/StillImage" />
        <dc:title></dc:title>
      </cc:Work>
    </rdf:RDF>
  </metadata>
  <g
     transform="translate(-14.957061,-93.874094)"
     id="layer1">
    <g
       id="g5584"
       style="display:inline"
       transform="translate(-111.22617,-469.70576)">
      <path
         style="display:inline;fill:#000000;stroke:#000000;stroke-width:0.21887681px;stroke-linecap:butt;stroke-linejoin:miter;stroke-opacity:1"
         d="m 148.54278,575.35862 1.23611,-8.44454 c 7.22614,-4.22765 14.90766,-4.19996 22.98121,-0.50882 l 0.86096,9.66039 c -8.36793,-5.14398 -16.72469,-3.83953 -25.07828,-0.70703 z"
         id="path1924-1-5" />
      <a
         style="display:inline;fill:#000000"
         id="a1928-9-6"
         transform="rotate(-0.099158,167405.07,93065.484)">
        <path
           id="path1926-5-2"
           d="m 409.96883,286.96696 0.25456,-9.70492 c 6.7833,-2.61404 13.87171,-4.25173 22.75084,-0.1591 l 0.89094,9.06852 c -9.20593,-3.45628 -17.23562,-3.38387 -23.89634,0.7955 z"
           style="fill:#000000;stroke:#000000;stroke-width:0.22273558px;stroke-linecap:butt;stroke-linejoin:miter;stroke-opacity:1" />
      </a>
      <path
         style="display:inline;fill:#ffffff;stroke:#000000;stroke-width:0.26458332px;stroke-linecap:butt;stroke-linejoin:miter;stroke-opacity:1"
         d="m 145.93358,580.19483 c -15.64437,10.49803 -17.54986,41.34073 -19.54122,65.61278 -1.53862,18.75382 20.34137,23.17412 30.63955,13.55414 6.79663,-6.34903 10.21558,-14.68621 14.51608,-20.81384 10.10371,10.67435 25.39792,9.42229 31.74211,-4.59066 l 17.19789,-0.0298 c 4.26758,9.41279 18.26544,17.6887 31.56949,4.85907 14.23188,26.2677 39.46313,34.7959 43.10557,7.10433 2.23611,-17.00003 -2.07384,-57.80548 -19.28211,-66.29894 l -0.5478,-10.77139 c -7.20962,-3.1321 -15.86056,-4.63504 -27.5541,0.23668 l -0.28243,11.52879 -71.24781,0.46349 -1.04074,-11.6777 c -10.61514,-5.17566 -19.69983,-4.27422 -27.78022,0.61506 z"
         id="path1763-5-9" />
      <path
         style="display:inline;fill:#ffffff;stroke:#000000;stroke-width:0.26458332px;stroke-linecap:butt;stroke-linejoin:miter;stroke-opacity:1"
         d="m 235.94379,610.0882 c -10.89554,2.9383 -16.66722,10.34434 -15.4558,23.83929 8.76005,15.32168 23.81943,13.48208 31.56949,4.85907 1.82702,-2.56698 3.6439,-5.14813 3.00449,-11.15553 34.53177,8.15443 44.12043,-34.44293 20.81897,-48.03908 -27.31235,-10.39433 -43.08229,9.11157 -39.93715,30.49625 z"
         id="path1767-6-6" />
      <path
         style="display:inline;fill:#ffffff;stroke:#000000;stroke-width:0.26458332px;stroke-linecap:butt;stroke-linejoin:miter;stroke-opacity:1"
         d="m 168.69749,629.48141 c -0.99508,16.22896 26.47658,24.09083 34.59261,4.47584 2.6767,-14.83446 -4.17441,-21.53108 -15.53821,-23.78564 4.0539,-31.70342 -23.87394,-38.60648 -41.81831,-29.97678 -23.75398,18.36581 -9.05076,57.15866 22.76391,49.28658 z"
         id="path1765-5-3" />
      <path
         style="display:inline;fill:#000000;stroke:#000000;stroke-width:0.26458332px;stroke-linecap:butt;stroke-linejoin:miter;stroke-opacity:1"
         d="m 168.69749,629.48141 c 0.40942,18.10064 27.05021,22.37028 34.59261,4.47584 1.44067,-12.3585 -1.92362,-21.50166 -15.53821,-23.78565 -17.43366,-0.0814 -19.8964,12.62159 -19.0544,19.30981 z"
         id="path1770-5-5" />
      <ellipse
         style="display:inline;opacity:1;fill:#000000;fill-opacity:1;stroke:#000000;stroke-width:0.21828845;stroke-miterlimit:4;stroke-dasharray:none;stroke-opacity:1"
         id="path1774-7-0"
         cx="236.60669"
         cy="627.89551"
         rx="18.238791"
         ry="17.651094"
         transform="rotate(-0.099158)" />
      <ellipse
         style="display:inline;opacity:1;fill:#ffffff;fill-opacity:1;stroke:#000000;stroke-width:0.30244049;stroke-miterlimit:4;stroke-dasharray:none;stroke-opacity:1"
         id="path1778-0-4"
         cx="184.95691"
         cy="629.01648"
         rx="13.588423"
         ry="13.804112"
         transform="rotate(-0.099158)" />
      <ellipse
         style="display:inline;opacity:1;fill:#000000;fill-opacity:1;stroke:#000000;stroke-width:0.23587963;stroke-miterlimit:4;stroke-dasharray:none;stroke-opacity:1"
         id="path1778-3-6-7"
         cx="185.03241"
         cy="629.20538"
         rx="10.597894"
         ry="10.766114"
         transform="rotate(-0.099158)" />
      <ellipse
         style="display:inline;opacity:1;fill:#ffffff;fill-opacity:1;stroke:#000000;stroke-width:0.30244049;stroke-miterlimit:4;stroke-dasharray:none;stroke-opacity:1"
         id="path1778-7-7-1"
         cx="236.81525"
         cy="628.10931"
         rx="13.588423"
         ry="13.804112"
         transform="rotate(-0.099158)" />
      <ellipse
         style="display:inline;opacity:1;fill:#000000;fill-opacity:1;stroke:#000000;stroke-width:0.23587963;stroke-miterlimit:4;stroke-dasharray:none;stroke-opacity:1"
         id="path1778-3-5-7-2"
         cx="236.89075"
         cy="628.29822"
         rx="10.597894"
         ry="10.766114"
         transform="rotate(-0.099158)" />
      <path
         style="display:inline;fill:#ffffff;stroke:#000000;stroke-width:0.31900001;stroke-linecap:butt;stroke-linejoin:miter;stroke-miterlimit:4;stroke-dasharray:none;stroke-opacity:1"
         d="m 223.64297,600.50887 -0.18014,5.10301 8.50084,-2.09358 z"
         id="path1815-8-2" />
      <rect
         style="display:inline;opacity:1;fill:#ffffff;fill-opacity:1;stroke:#000000;stroke-width:0.31900001;stroke-miterlimit:4;stroke-dasharray:none;stroke-opacity:1"
         id="rect1817-2-0"
         width="8.6934528"
         height="4.5357141"
         x="191.23132"
         y="601.61322"
         transform="rotate(-0.099158)" />
      <path
         style="display:inline;fill:#000000;stroke:#000000;stroke-width:0.50700003;stroke-linecap:butt;stroke-linejoin:miter;stroke-miterlimit:4;stroke-dasharray:none;stroke-opacity:1"
         d="m 153.12165,583.96215 15.3077,-0.21548 0.20994,12.0949 13.04014,-0.0226 -0.16152,15.8753 -12.4732,0.0216 -0.16839,11.90656 -15.11901,0.0262 -0.39956,-12.47253 -12.47351,-0.16741 -0.17641,-14.5518 12.4354,-0.0215 z"
         id="path1849-5-6" />
      <path
         style="display:inline;fill:#ffffff;stroke:#000000;stroke-width:0.50700003;stroke-linecap:butt;stroke-linejoin:miter;stroke-miterlimit:4;stroke-dasharray:none;stroke-opacity:1"
         d="m 253.78602,582.74933 16.36079,-0.21731 0.22295,12.09487 13.93721,-0.0241 -0.17452,15.87532 -13.33128,0.0231 -0.18138,11.90658 -16.15911,0.028 -0.42556,-12.47249 -13.3316,-0.16592 0.37877,-14.55276 12.72531,-0.022 z"
         id="path1849-4-8-7" />
      <path
         style="display:inline;fill:#ffffff;stroke:#000000;stroke-width:0.26458332px;stroke-linecap:butt;stroke-linejoin:miter;stroke-opacity:1"
         d="m 156.89903,589.56146 8.95349,-0.0205 0.01,5.74629 -4.13526,4.28346 -4.81802,-4.13435 z"
         id="path1866-9-4" />
      <path
         style="display:inline;fill:#ffffff;stroke:#000000;stroke-width:0.26458332px;stroke-linecap:butt;stroke-linejoin:miter;stroke-opacity:1"
         d="m 158.45597,587.71244 5.21333,0.0414 -2.58147,-2.7609 z"
         id="path1868-6-1" />
      <path
         style="display:inline;fill:#ffffff;stroke:#000000;stroke-width:0.26458332px;stroke-linecap:butt;stroke-linejoin:miter;stroke-opacity:1"
         d="m 165.84996,617.95857 -8.95288,0.10609 -0.0648,-5.74592 4.36185,-4.05599 4.5896,3.82129 z"
         id="path1866-2-5-9" />
      <path
         style="display:inline;fill:#ffffff;stroke:#000000;stroke-width:0.26458332px;stroke-linecap:butt;stroke-linejoin:miter;stroke-opacity:1"
         d="m 164.31077,619.82239 -5.21348,0.008 2.60773,2.73609 z"
         id="path1868-2-0-4" />
      <path
         style="display:inline;fill:#ffffff;stroke:#000000;stroke-width:0.26458332px;stroke-linecap:butt;stroke-linejoin:miter;stroke-opacity:1"
         d="m 146.45904,607.54263 -0.0308,-8.95346 5.74626,-0.0169 4.01915,4.39581 -3.85978,4.5573 z"
         id="path1866-2-0-0-6" />
      <path
         style="display:inline;fill:#ffffff;stroke:#000000;stroke-width:0.26458332px;stroke-linecap:butt;stroke-linejoin:miter;stroke-opacity:1"
         d="m 144.60825,605.98781 0.0354,-5.21337 -2.75794,2.58462 z"
         id="path1868-2-8-4-0" />
      <path
         style="display:inline;fill:#ffffff;stroke:#000000;stroke-width:0.26458332px;stroke-linecap:butt;stroke-linejoin:miter;stroke-opacity:1"
         d="m 176.49068,607.49066 -2e-4,-8.95351 -5.74629,0.003 -4.00391,4.40971 3.87553,4.5439 z"
         id="path1866-2-0-8-5-6" />
      <path
         style="display:inline;fill:#ffffff;stroke:#000000;stroke-width:0.26458332px;stroke-linecap:butt;stroke-linejoin:miter;stroke-opacity:1"
         d="m 178.33607,605.92944 -0.0534,-5.21322 2.76688,2.57506 z"
         id="path1868-2-8-5-4-6" />
      <path
         style="display:inline;fill:#000000;stroke-width:0.021391"
         d="m 211.46996,620.25927 c -0.42992,-0.0375 -0.99011,-0.1609 -1.38691,-0.3055 -0.32112,-0.11705 -0.8675,-0.39248 -1.14234,-0.57659 -1.99036,-1.33056 -2.89306,-3.72748 -2.26814,-6.02247 0.17808,-0.65403 0.4931,-1.29343 0.91354,-1.85415 0.19716,-0.26298 0.65009,-0.73179 0.90845,-0.94033 0.8913,-0.7194 1.93652,-1.12895 3.09731,-1.2136 0.71857,-0.0524 1.54335,0.0633 2.22293,0.3118 0.31387,0.11476 0.86451,0.39108 1.13272,0.5694 0.82116,0.54444 1.4645,1.27114 1.89599,2.14174 0.34139,0.68877 0.50246,1.27891 0.56359,2.06486 0.0555,0.7139 -0.061,1.55342 -0.31042,2.23737 -0.0954,0.26171 -0.35663,0.79959 -0.49231,1.01387 -0.41988,0.66307 -0.98807,1.24841 -1.63138,1.68064 -0.27525,0.18496 -0.81976,0.46169 -1.14342,0.5811 -0.71861,0.26516 -1.5837,0.37947 -2.35955,0.31183 z m 0.74897,-7.09112 c 0.0324,0.008 0.17429,0.0494 0.31557,0.0938 l 0.25682,0.0808 0.0124,0.74022 0.0124,0.74022 0.0643,0.0674 c 0.0965,0.10118 0.217,0.15383 0.37751,0.16512 l 0.14196,0.01 0.099,-0.0915 c 0.11271,-0.10429 0.22775,-0.32173 0.28307,-0.53494 0.0821,-0.31663 0.0274,-0.8582 -0.11505,-1.1381 -0.19539,-0.38394 -0.82962,-0.76981 -1.69574,-1.03175 -0.30253,-0.0914 -0.75181,-0.20013 -0.82706,-0.19999 l -0.0546,8e-5 0.004,2.42328 0.004,2.42331 0.52999,0.31316 0.52998,0.31316 0.002,-2.19362 0.002,-2.1936 z m 0.79308,4.08114 c 0.50895,-0.1762 1.3074,-0.48113 1.64033,-0.62642 0.51976,-0.22683 0.66611,-0.32819 0.66587,-0.46116 -4.7e-4,-0.26992 -0.54697,-0.66722 -1.0933,-0.79483 -0.31556,-0.0737 -0.97683,0.0209 -1.4636,0.20973 l -0.16921,0.0656 4.7e-4,0.26583 c 2.7e-4,0.14621 0.008,0.26593 0.0165,0.26608 0.009,2.7e-4 0.33456,-0.0792 0.72387,-0.17636 l 0.70784,-0.1766 0.10473,0.0452 c 0.22566,0.0967 0.44304,0.20592 0.4243,0.21286 -0.0111,0.004 -0.4574,0.17878 -0.99234,0.38831 l -0.97262,0.38099 -0.006,0.27496 c -0.006,0.25636 -0.003,0.27393 0.0326,0.25969 0.0209,-0.009 0.19198,-0.0686 0.38012,-0.13369 z m -2.43381,-0.33153 0.11221,-0.0364 -4.7e-4,-0.27975 -4.9e-4,-0.27974 -0.048,0.0141 c -0.18197,0.0533 -0.36659,0.08 -0.63622,0.0917 -0.28912,0.0125 -0.3137,0.01 -0.36258,-0.0291 -0.0492,-0.0401 -0.0509,-0.0481 -0.0268,-0.12858 0.0146,-0.047 0.0371,-0.0953 0.0521,-0.1064 0.0223,-0.0171 0.72128,-0.24562 0.95128,-0.31091 l 0.0695,-0.0197 -5.4e-4,-0.30956 -5.3e-4,-0.30959 -0.0481,0.0112 c -0.0265,0.006 -0.16358,0.0361 -0.3047,0.0671 -0.50949,0.11183 -1.08493,0.33334 -1.37881,0.53073 -0.28486,0.19133 -0.41853,0.4131 -0.36505,0.60558 0.0649,0.23349 0.31343,0.40298 0.71528,0.48781 0.23623,0.0499 0.2527,0.0509 0.72126,0.0444 0.342,-0.006 0.46321,-0.0141 0.55075,-0.0424 z"
         id="path5663-0-6" />
      <g
         transform="rotate(-0.099158,166264.95,93019.419)"
         style="display:inline;stroke-width:1;stroke-miterlimit:4;stroke-dasharray:none"
         id="g5735-2-7">
        <ellipse
           ry="6.151135"
           rx="6.4928646"
           cy="302.66965"
           cx="422.36948"
           id="path1820-04-4"
           style="opacity:1;fill:#000000;fill-opacity:1;stroke:#000000;stroke-width:1;stroke-miterlimit:4;stroke-dasharray:none;stroke-opacity:1" />
        <path
           id="path1868-9-0-6"
           d="m 416.85487,305.31387 10.94904,0.10584 -5.41164,-7.9246 z"
           style="display:inline;fill:none;stroke:#008000;stroke-width:1;stroke-linecap:butt;stroke-linejoin:miter;stroke-miterlimit:4;stroke-dasharray:none;stroke-opacity:1" />
      </g>
      <g
         transform="rotate(-0.099158,166264.95,93019.419)"
         style="display:inline;stroke-width:1;stroke-miterlimit:4;stroke-dasharray:none"
         id="g5739-0-8">
        <ellipse
           ry="6.151135"
           rx="6.4928646"
           cy="315.70981"
           cx="408.40326"
           id="path1820-17-8-0"
           style="display:inline;opacity:1;fill:#000000;fill-opacity:1;stroke:#000000;stroke-width:1;stroke-miterlimit:4;stroke-dasharray:none;stroke-opacity:1" />
        <rect
           y="312.45026"
           x="404.56488"
           height="6.6432228"
           width="7.5289865"
           id="rect5681-0-6"
           style="opacity:1;fill:none;fill-opacity:1;stroke:#800080;stroke-width:1;stroke-miterlimit:4;stroke-dasharray:none;stroke-opacity:1" />
      </g>
      <g
         transform="rotate(-0.099158,166264.95,93019.419)"
         style="display:inline;stroke-width:1;stroke-miterlimit:4;stroke-dasharray:none"
         id="g5743-4-3">
        <ellipse
           ry="6.151135"
           rx="6.4928646"
           cy="316.27679"
           cx="436.5625"
           id="path1820-0-3-2"
           style="display:inline;opacity:1;fill:#000000;fill-opacity:1;stroke:#000000;stroke-width:1;stroke-miterlimit:4;stroke-dasharray:none;stroke-opacity:1" />
        <ellipse
           ry="3.9270239"
           rx="4.1451917"
           cy="315.92249"
           cx="436.68088"
           id="path1820-0-0-6-8"
           style="display:inline;opacity:1;fill:none;fill-opacity:1;stroke:#ff8080;stroke-width:1;stroke-miterlimit:4;stroke-dasharray:none;stroke-opacity:1" />
      </g>
      <g
         style="display:inline;stroke-width:1;stroke-miterlimit:4;stroke-dasharray:none"
         id="g5757-0-7"
         transform="rotate(-0.099158,165959.19,93019.688)">
        <ellipse
           ry="6.151135"
           rx="6.4928646"
           cy="328.939"
           cx="422.57739"
           id="path1820-1-5-9"
           style="display:inline;opacity:1;fill:#000000;fill-opacity:1;stroke:#000000;stroke-width:1;stroke-miterlimit:4;stroke-dasharray:none;stroke-opacity:1" />
        <g
           id="g5751-7-4"
           style="stroke-width:1;stroke-miterlimit:4;stroke-dasharray:none">
          <path
             style="fill:none;stroke:#0000ff;stroke-width:1;stroke-linecap:butt;stroke-linejoin:miter;stroke-miterlimit:4;stroke-dasharray:none;stroke-opacity:1"
             d="m 418.47173,325.47659 8.33943,6.38765"
             id="path5698-5-1" />
          <path
             style="display:inline;fill:none;stroke:#0000ff;stroke-width:1;stroke-linecap:butt;stroke-linejoin:miter;stroke-miterlimit:4;stroke-dasharray:none;stroke-opacity:1"
             d="m 426.81116,325.47659 -8.33943,6.38765"
             id="path5698-3-5-7" />
        </g>
      </g>
      <text
         xml:space="preserve"
         style="font-style:normal;font-variant:normal;font-weight:normal;font-stretch:normal;font-size:8.05003262px;line-height:1.25;font-family:'KR Turkey Time';-inkscape-font-specification:'KR Turkey Time';letter-spacing:0px;word-spacing:0px;display:inline;fill:#000000;fill-opacity:1;stroke:none;stroke-width:0.20125081"
         x="199.83435"
         y="590.54401"
         id="text1045-7-3-4-5-3"
         transform="rotate(-0.099158)"><tspan
           id="tspan1043-4-0-71-2-9"
           x="199.83435"
           y="590.54401"
           style="font-style:normal;font-variant:normal;font-weight:normal;font-stretch:normal;font-family:'Lucida Fax';-inkscape-font-specification:'Lucida Fax';fill:#000000;stroke-width:0.20125081">SONY</tspan></text>
    </g>
  </g>
</svg>
