<?xml version="1.0" encoding="UTF-8" standalone="no"?>
<svg
   xmlns:dc="http://purl.org/dc/elements/1.1/"
   xmlns:cc="http://creativecommons.org/ns#"
   xmlns:rdf="http://www.w3.org/1999/02/22-rdf-syntax-ns#"
   xmlns:svg="http://www.w3.org/2000/svg"
   xmlns="http://www.w3.org/2000/svg"
   id="svg5245"
   version="1.1"
   viewBox="0 0 165.65367 116.15002"
   height="116.15002mm"
   width="165.65367mm">
  <defs
     id="defs5239" />
  <metadata
     id="metadata5242">
    <rdf:RDF>
      <cc:Work
         rdf:about="">
        <dc:format>image/svg+xml</dc:format>
        <dc:type
           rdf:resource="http://purl.org/dc/dcmitype/StillImage" />
        <dc:title></dc:title>
      </cc:Work>
    </rdf:RDF>
  </metadata>
  <g
     transform="translate(-23.762444,-92.270231)"
     id="layer1">
    <g
       id="g5469"
       style="display:inline"
       transform="translate(-353.90283,-462.38261)">
      <path
         style="display:inline;fill:#ffffff;stroke:#000000;stroke-width:0.26458332px;stroke-linecap:butt;stroke-linejoin:miter;stroke-opacity:1"
         d="m 396.41869,574.43402 c -29.82055,78.20208 -18.69756,91.79587 -2.13815,96.21166 7.33011,-1.98734 21.84688,-27.0261 31.53243,-31.53244 1.364,-2.46529 63.05293,-1.44302 68.15374,10e-6 12.62071,5.88332 18.82566,26.42981 31.54317,31.5378 33.35988,-8.40932 12.01,-60.69571 -3.20723,-98.35518 -8.96402,-8.66695 -27.31301,-16.07462 -37.41773,-10.69078 l -48.24216,-10e-6 -9.2208,-2.40542 c -9.24134,1.69548 -18.17105,3.90112 -25.39061,8.81989 -3.26554,2.22485 -4.37696,4.53039 -5.61266,6.41447 z"
         id="path838-9-2" />
      <path
         style="display:inline;fill:#ffffff;stroke:#000000;stroke-width:0.26458332px;stroke-linecap:butt;stroke-linejoin:miter;stroke-opacity:1"
         d="m 443.99266,577.64124 -7.3499,-12.96256 -8.01809,-2.40543 c -8.59476,-0.88618 -18.98396,2.36865 -32.20598,12.16077 -17.64622,45.82401 -29.89943,90.37069 -2.13815,96.21166 8.609,-12.26351 10.44651,-29.76582 31.17075,-35.52805 21.23411,-5.904 59.09114,-2.06447 70.06349,-0.40488 13.14418,1.98808 26.49183,28.6772 29.9951,35.93827 32.72276,-7.2592 12.16362,-62.67681 -3.20723,-98.35518 -11.38827,-6.24263 -22.5514,-11.83796 -31.1369,-10.02262 l -5.16438,1.91872 -9.41257,13.58292 z"
         id="path842-2-2" />
      <path
         style="display:inline;fill:#000000;stroke:#000000;stroke-width:0.26458332px;stroke-linecap:butt;stroke-linejoin:miter;stroke-opacity:1"
         d="m 401.89772,568.01955 2.13815,-4.27631 c 7.62508,-5.53134 16.66741,-7.66128 26.05878,-8.95352 l 6.5481,3.47448 h 46.23764 l 6.54811,-3.47448 c 12.85295,1.59242 20.74253,5.01344 26.86058,9.08714 l 1.33635,4.40995 c -13.71991,-9.19649 -26.08741,-9.82152 -32.74051,-6.68172 l -48.24216,-2e-5 -9.2208,-2.40541 c -10.98357,1.70222 -18.79236,4.99183 -25.52424,8.81989 z"
         id="path840-9-7" />
      <path
         style="display:inline;fill:none;stroke:#000000;stroke-width:0.5;stroke-linecap:butt;stroke-linejoin:miter;stroke-miterlimit:4;stroke-dasharray:none;stroke-opacity:1"
         d="m 433.03462,609.11225 0.0668,-7.14947 c 3.21946,-1.5029 6.49202,-1.89058 9.88898,0.33409 v 6.81538 h 6.74855 c 2.53473,3.27405 1.83053,6.5481 -0.0668,9.82215 l -6.94899,0.13364 0.0668,6.28081 c -3.43806,2.44399 -6.67347,2.25345 -9.75534,0.0668 l 0.0668,-6.41448 -7.28309,-0.26726 c -0.76835,-2.68386 -2.4047,-4.84693 0.20045,-9.5549 z"
         id="path861-2-6" />
      <path
         style="display:inline;fill:#000000;stroke:#000000;stroke-width:0.26458332px;stroke-linecap:butt;stroke-linejoin:miter;stroke-opacity:1"
         d="m 434.43778,610.11449 0.13364,-7.34991 c 2.78252,-1.17736 5.23191,-0.63012 7.14409,-0.0668 v 7.34991 l 6.75392,0.0668 c 1.06727,2.4888 1.26955,4.90553 0.20045,7.2163 h -7.75081 l 0.13363,7.28308 c -1.95036,0.95479 -3.96335,1.67473 -6.61492,0 l 0.20045,-7.08263 h -8.01808 c -0.85757,-2.20257 -1.34079,-4.48536 0.26727,-7.21628 z"
         id="path863-1-4" />
      <ellipse
         style="display:inline;opacity:1;fill:#000000;fill-opacity:1;stroke:#000000;stroke-width:0.40000001;stroke-miterlimit:4;stroke-dasharray:none;stroke-opacity:1"
         id="path865-6-0"
         cx="460.99887"
         cy="569.83344"
         rx="7.0870538"
         ry="6.8035712" />
      <path
         style="display:inline;fill:#ffffff;stroke:#000000;stroke-width:0.26499999;stroke-linecap:butt;stroke-linejoin:miter;stroke-miterlimit:4;stroke-dasharray:none;stroke-opacity:1"
         d="m 459.34993,566.88366 c -0.52157,-1.03766 -2.23292,-0.90537 -4.34314,-1.06908 1.11533,-0.0889 1.16846,-2.28117 5.87994,-0.20047 1.75736,-1.15386 4.37383,-0.9448 5.7463,2e-5 -0.80868,0.36324 -1.94039,-0.67038 -3.74178,1.26953 1.86977,2.14985 4.29256,5.23128 2.73951,7.82301 -1.07861,-4.55212 -2.99044,-4.13127 -4.54358,-6.15259 -3.75041,3.0322 -4.76512,5.06959 -4.6104,6.68174 -0.12404,-1.76786 -2.45335,-1.46409 2.87315,-8.35216 z"
         id="path867-5-2" />
      <ellipse
         style="display:inline;opacity:1;fill:#000000;fill-opacity:1;stroke:#000000;stroke-width:0.5;stroke-miterlimit:4;stroke-dasharray:none;stroke-opacity:1"
         id="path869-5-4"
         cx="417.13208"
         cy="586.60016"
         rx="12.160764"
         ry="11.22532" />
      <ellipse
         style="display:inline;opacity:1;fill:none;fill-opacity:1;stroke:#000000;stroke-width:0.44077793;stroke-miterlimit:4;stroke-dasharray:none;stroke-opacity:1"
         id="path869-4-8-7"
         cx="417.15359"
         cy="586.73376"
         rx="10.720392"
         ry="9.8957462" />
      <ellipse
         style="display:inline;opacity:1;fill:#ffffff;fill-opacity:1;stroke:#000000;stroke-width:0.39232349;stroke-miterlimit:4;stroke-dasharray:none;stroke-opacity:1"
         id="path869-4-7-3-9"
         cx="417.12671"
         cy="586.84064"
         rx="9.5419083"
         ry="8.8079128" />
      <ellipse
         style="display:inline;opacity:1;fill:#000000;fill-opacity:1;stroke:#000000;stroke-width:0.5;stroke-miterlimit:4;stroke-dasharray:none;stroke-opacity:1"
         id="path869-3-5-0"
         cx="482.46872"
         cy="614.23035"
         rx="12.160764"
         ry="11.22532" />
      <ellipse
         style="display:inline;opacity:1;fill:none;fill-opacity:1;stroke:#000000;stroke-width:0.44077793;stroke-miterlimit:4;stroke-dasharray:none;stroke-opacity:1"
         id="path869-4-77-0-0"
         cx="482.49026"
         cy="614.36401"
         rx="10.720392"
         ry="9.8957462" />
      <ellipse
         style="display:inline;opacity:1;fill:#ffffff;fill-opacity:1;stroke:#000000;stroke-width:0.39232349;stroke-miterlimit:4;stroke-dasharray:none;stroke-opacity:1"
         id="path869-4-7-2-9-0"
         cx="482.46335"
         cy="614.47083"
         rx="9.5419083"
         ry="8.8079128" />
      <rect
         style="display:inline;opacity:1;fill:none;fill-opacity:1;stroke:#000000;stroke-width:0.26499999;stroke-miterlimit:4;stroke-dasharray:none;stroke-opacity:1"
         id="rect982-2-2"
         width="3.3917735"
         height="2.3742416"
         x="445.66132"
         y="584.92267" />
      <rect
         style="display:inline;opacity:1;fill:none;fill-opacity:1;stroke:#000000;stroke-width:0.26499999;stroke-miterlimit:4;stroke-dasharray:none;stroke-opacity:1"
         id="rect982-7-1-6"
         width="3.3917735"
         height="2.3742416"
         x="446.81451"
         y="585.90631" />
      <ellipse
         style="display:inline;opacity:1;fill:none;fill-opacity:1;stroke:#000000;stroke-width:0.21384549;stroke-miterlimit:4;stroke-dasharray:none;stroke-opacity:1"
         id="path999-1-8"
         cx="447.99097"
         cy="586.74451"
         rx="4.6866593"
         ry="4.0008063" />
      <path
         style="display:inline;fill:none;stroke:#000000;stroke-width:0.26458332px;stroke-linecap:butt;stroke-linejoin:miter;stroke-opacity:1"
         d="m 468.84051,585.4835 h 6.61458"
         id="path1003-26-6" />
      <path
         style="display:inline;fill:none;stroke:#000000;stroke-width:0.26458332px;stroke-linecap:butt;stroke-linejoin:miter;stroke-opacity:1"
         d="m 468.84051,586.54184 h 6.61458"
         id="path1003-9-3-2" />
      <path
         style="display:inline;fill:none;stroke:#000000;stroke-width:0.26458332px;stroke-linecap:butt;stroke-linejoin:miter;stroke-opacity:1"
         d="m 468.84051,587.60018 h 6.61458"
         id="path1003-2-0-5" />
      <ellipse
         style="display:inline;opacity:1;fill:none;fill-opacity:1;stroke:#000000;stroke-width:0.21384549;stroke-miterlimit:4;stroke-dasharray:none;stroke-opacity:1"
         id="path999-2-7-6"
         cx="472.14777"
         cy="586.84424"
         rx="4.6866593"
         ry="4.0008063" />
      <ellipse
         style="display:inline;opacity:1;fill:#000000;fill-opacity:1;stroke:#000000;stroke-width:0.26499999;stroke-miterlimit:4;stroke-dasharray:none;stroke-opacity:1"
         id="path1041-8-3"
         cx="491.56665"
         cy="586.92889"
         rx="5.8799295"
         ry="5.5458426" />
      <text
         xml:space="preserve"
         style="font-style:normal;font-variant:normal;font-weight:normal;font-stretch:normal;font-size:10.58333302px;line-height:1.25;font-family:'KR Turkey Time';-inkscape-font-specification:'KR Turkey Time';letter-spacing:0px;word-spacing:0px;display:inline;fill:#0000ff;fill-opacity:1;stroke:none;stroke-width:1;stroke-miterlimit:4;stroke-dasharray:none"
         x="487.95312"
         y="590.34192"
         id="text1045-78-2"><tspan
           id="tspan1043-0-8"
           x="487.95312"
           y="590.34192"
           style="font-style:normal;font-variant:normal;font-weight:normal;font-stretch:normal;font-family:'Lucida Fax';-inkscape-font-specification:'Lucida Fax';fill:#0000ff;stroke-width:1;stroke-miterlimit:4;stroke-dasharray:none">X</tspan></text>
      <ellipse
         style="display:inline;opacity:1;fill:#000000;fill-opacity:1;stroke:#000000;stroke-width:0.26499999;stroke-miterlimit:4;stroke-dasharray:none;stroke-opacity:1"
         id="path1041-6-3-0"
         cx="503.31332"
         cy="575.88104"
         rx="5.8799295"
         ry="5.5458426" />
      <text
         xml:space="preserve"
         style="font-style:normal;font-variant:normal;font-weight:normal;font-stretch:normal;font-size:10.58333302px;line-height:1.25;font-family:'KR Turkey Time';-inkscape-font-specification:'KR Turkey Time';letter-spacing:0px;word-spacing:0px;display:inline;fill:#ffff00;fill-opacity:1;stroke:none;stroke-width:0.26458332"
         x="499.69977"
         y="579.8233"
         id="text1045-2-5-5"><tspan
           id="tspan1043-1-8-7"
           x="499.69977"
           y="579.8233"
           style="font-style:normal;font-variant:normal;font-weight:normal;font-stretch:normal;font-family:'Lucida Fax';-inkscape-font-specification:'Lucida Fax';fill:#ffff00;stroke-width:0.26458332">Y</tspan></text>
      <ellipse
         style="display:inline;opacity:1;fill:#000000;fill-opacity:1;stroke:#000000;stroke-width:0.26499999;stroke-miterlimit:4;stroke-dasharray:none;stroke-opacity:1"
         id="path1041-7-4-3"
         cx="514.2746"
         cy="587.59833"
         rx="5.8799295"
         ry="5.5458426" />
      <text
         xml:space="preserve"
         style="font-style:normal;font-variant:normal;font-weight:normal;font-stretch:normal;font-size:10.58333302px;line-height:1.25;font-family:'KR Turkey Time';-inkscape-font-specification:'KR Turkey Time';letter-spacing:0px;word-spacing:0px;display:inline;fill:#ff0000;fill-opacity:1;stroke:none;stroke-width:0.26458332"
         x="511.19025"
         y="591.01141"
         id="text1045-6-9-5"><tspan
           id="tspan1043-9-6-5"
           x="511.19025"
           y="591.01141"
           style="font-style:normal;font-variant:normal;font-weight:normal;font-stretch:normal;font-family:'Lucida Fax';-inkscape-font-specification:'Lucida Fax';fill:#ff0000;stroke-width:0.26458332">B</tspan></text>
      <ellipse
         style="display:inline;opacity:1;fill:#000000;fill-opacity:1;stroke:#000000;stroke-width:0.26499999;stroke-miterlimit:4;stroke-dasharray:none;stroke-opacity:1"
         id="path1041-78-1-2"
         cx="502.93533"
         cy="598.18164"
         rx="5.8799295"
         ry="5.5458426" />
      <text
         xml:space="preserve"
         style="font-style:normal;font-variant:normal;font-weight:normal;font-stretch:normal;font-size:10.58333302px;line-height:1.25;font-family:'KR Turkey Time';-inkscape-font-specification:'KR Turkey Time';letter-spacing:0px;word-spacing:0px;display:inline;fill:#008000;fill-opacity:1;stroke:none;stroke-width:1;stroke-miterlimit:4;stroke-dasharray:none"
         x="499.32181"
         y="601.59473"
         id="text1045-7-9-4"><tspan
           id="tspan1043-4-2-5"
           x="499.32181"
           y="601.59473"
           style="font-style:normal;font-variant:normal;font-weight:normal;font-stretch:normal;font-family:'Lucida Fax';-inkscape-font-specification:'Lucida Fax';fill:#008000;stroke-width:1;stroke-miterlimit:4;stroke-dasharray:none">A</tspan></text>
      <ellipse
         style="display:inline;opacity:1;fill:#000000;fill-opacity:1;stroke:#000000;stroke-width:0.30079848;stroke-miterlimit:4;stroke-dasharray:none;stroke-opacity:1"
         id="path869-4-4-3-8"
         cx="416.86481"
         cy="586.70691"
         rx="7.3158784"
         ry="6.753118" />
      <ellipse
         style="display:inline;opacity:1;fill:#000000;fill-opacity:1;stroke:#000000;stroke-width:0.30079848;stroke-miterlimit:4;stroke-dasharray:none;stroke-opacity:1"
         id="path869-4-4-7-4-7"
         cx="482.46335"
         cy="614.34253"
         rx="7.3158784"
         ry="6.753118" />
    </g>
  </g>
</svg>
